<ttFont>
          <CharString index="0">
            700 660 rmoveto
            9 callsubr
            93 -20 rlineto
            -323 vlineto
            -118 -15 -138 -140 -139 -14 134 124 15 callsubr
            -48 callgsubr
            -319 vlineto
            -163 26 -169 226 226 28 168 162 15 callsubr
            return
          </CharString>
          <CharString index="1">
            321 -11 rmoveto
            235 35 168 202 202 -39 170 -236 -234 -37 -166 -204 -205 41 -167 235 hvcurveto
            72 vmoveto
            -158 -14 130 168 167 14 133 157 160 7 -140 -162 -162 -7 -134 -159 hvcurveto
            return
          </CharString>
          <CharString index="2">
            250 -10 rmoveto
            158 50 106 154 154 -50 106 -158 -158 -50 -106 -154 -154 50 -106 158 hvcurveto
            60 vmoveto
            -92 -10 100 100 100 10 100 92 92 10 -100 -100 -100 -10 -100 -92 hvcurveto
            return
          </CharString>
          <CharString index="3">
            66 80 rmoveto
            -74 -20 rlineto
            -60 264 60 vlineto
            -90 20 49 166 rlineto
            234 hlineto
            49 -166 -89 -20 rlineto
            -60 263 15 callgsubr
            -196 640 rlineto
            -140 hlineto
            70 -77 rmoveto
            92 -314 rlineto
            -185 hlineto
            return
          </CharString>
          <CharString index="4">
            12 callsubr
            95 hintmask 0111001101000000
            -65 callgsubr
            hintmask 1011001011000000
            -94 callgsubr
            hintmask 1010011011000000
            -22 callsubr
            hintmask 1011001011000000
            3 callsubr
            hintmask 0110101101000000
            -99 callsubr
            hintmask 1011001101000000
            -95 callgsubr
            return
          </CharString>
          <CharString index="5">
            -21 callsubr
            -95 95 hintmask 10111001
            -70 callgsubr
            hintmask 01111010
            -41 callsubr
            hintmask 10111010
            -74 callsubr
            hintmask 10111001
            -95 callsubr
            hintmask 10110110
            -73 callgsubr
            return
          </CharString>
          <CharString index="6">
            318 -3 callsubr
            -285 -60 hlineto
            -100 callsubr
            560 vlineto
            -17 callgsubr
            return
          </CharString>
          <CharString index="7">
            93 -20 rlineto
            -560 -101 callgsubr
            return
          </CharString>
          <CharString index="8">
            49 28 54 68 63 18 -47 -57 vhcurveto
            -45 vlineto
            -104 -5 rlineto
            -138 -7 -49 -56 -86 vvcurveto
            -117 89 -30 67 vhcurveto
            return
          </CharString>
          <CharString index="9">
            206 hmoveto
            31 hlineto
            -50 -135 -95 -17 rlineto
            -63 258 60 vlineto
            -76 20 190 555 50 25 callgsubr
            -226 -65 vlineto
            80 -15 -105 -351 -107 351 79 15 rlineto
            65 -227 -60 vlineto
            49 -20 rlineto
            return
          </CharString>
          <CharString index="10">
            -5 callgsubr
            -435 vlineto
            -110 -21 -24 -50 -25 -33 6 10 -24 vhcurveto
            -24 -55 rlineto
            -26 36 40 -11 44 hhcurveto
            115 37 76 134 hvcurveto
            return
          </CharString>
          <CharString index="11">
            hstemhm
            51 87 153 75 -75 88 hintmask 1000101101000000
            -82 callgsubr
            vhcurveto
            hintmask 1001001110000000
            -10 callgsubr
            hintmask 1000011110000000
            156 -56 -45 callsubr
            hintmask 1001001110000000
            -83 callsubr
            hintmask 0101001110000000
            -9 callgsubr
            hintmask 0011001110000000
            -9 callsubr
            return
          </CharString>
          <CharString index="12">
            90 -20 rlineto
            -231 vlineto
            -64 -30 -65 -78 -73 -13 56 86 vhcurveto
            298 -156 -60 vlineto
            return
          </CharString>
          <CharString index="13">
            rmoveto
            -114 hlineto
            -110 -145 rlineto
            78 hlineto
            87 82 81 -82 rlineto
            78 hlineto
            endchar
          </CharString>
          <CharString index="14">
            13 -145 rlineto
            79 220 -480 -60 hlineto
            -68 callsubr
            return
          </CharString>
          <CharString index="15">
            rmoveto
            -123 hlineto
            -105 -125 rlineto
            81 hlineto
            85 72 86 -72 0 callgsubr
          </CharString>
          <CharString index="16">
            -14 -160 rlineto
            -195 248 188 83 -188 239 196 hlineto
            return
          </CharString>
          <CharString index="17">
            rmoveto
            -26 -12 18 23 hvcurveto
            -50 hlineto
            -54 21 -34 63 69 28 34 47 38 -21 24 -43 5 vhcurveto
            40 9 18 28 30 vvcurveto
            33 -23 38 -63 -64 -22 -38 -46 vhcurveto
            50 hlineto
            21 6 16 29 vhcurveto
            return
          </CharString>
          <CharString index="18">
            rmoveto
            32 hlineto
            -12 -81 rlineto
            57 hlineto
            22 81 rlineto
            91 -99 vlineto
            endchar
          </CharString>
          <CharString index="19">
            23 callsubr
            187 85 hintmask 01100111
            242 -10 rmoveto
            135 41 85 107 hvcurveto
            -87 hlineto
            hintmask 10010111
            -49 callgsubr
            hintmask 10100111
            70 20 -54 -49 hvcurveto
            85 hlineto
            hintmask 10001111
            163 -55 -45 callsubr
            hintmask 01100111
            53 -11 -44 20 -58 hhcurveto
            -133 -53 -106 -154 -154 43 -106 158 hvcurveto
            return
          </CharString>
          <CharString index="20">
            12 427 rmoveto
            75 -272 hlineto
            -114 37 -51 83 41 42 13 19 20 vhcurveto
            -21 56 rlineto
            -6 -20 -26 -5 -14 hhcurveto
            -33 -14 27 61 hvcurveto
            272 -50 callsubr
            return
          </CharString>
          <CharString index="21">
            rmoveto
            -78 hlineto
            -91 -82 -97 82 rlineto
            -78 hlineto
            120 -145 rlineto
            114 hlineto
            endchar
          </CharString>
          <CharString index="22">
            298 -11 rmoveto
            131 77 75 123 hvcurveto
            267 -349 -76 170 vvcurveto
            63 49 38 59 93 37 -93 -81 vhcurveto
            return
          </CharString>
          <CharString index="23">
            rmoveto
            -81 hlineto
            -86 -73 -85 73 rlineto
            -81 hlineto
            105 -125 rlineto
            123 hlineto
            endchar
          </CharString>
          <CharString index="24">
            52 -7 -45 21 -45 hhcurveto
            -63 -75 -42 -103 hvcurveto
            -187 240 41 -103 vvcurveto
            -43 -39 -18 -36 vhcurveto
            return
          </CharString>
          <CharString index="25">
            51 callsubr
            hintmask 11101000
            14 callsubr
            hintmask 11110000
            -64 callgsubr
            hintmask 11100100
            -35 callgsubr
            hintmask 11101000
            -73 -20 rlineto
            return
          </CharString>
          <CharString index="26">
            rmoveto
            74 38 -56 -68 hvcurveto
            -123 vlineto
            -68 -38 -65 -74 -76 -18 89 100 100 18 91 76 vhcurveto
            return
          </CharString>
          <CharString index="27">
            -65 0 60 -49 -21 244 -42 callsubr
            return
          </CharString>
          <CharString index="28">
            61 -17 -53 12 -51 hhcurveto
            19 -303 rmoveto
            -74 -19 51 67 67 19 48 74 74 17 -48 -67 -68 -17 -50 -74 hvcurveto
            -3 -199 rmoveto
            return
          </CharString>
          <CharString index="29">
            249 -10 rmoveto
            135 37 80 78 8 hvcurveto
            -91 hlineto
            return
          </CharString>
          <CharString index="30">
            rmoveto
            -126 -48 -79 -109 -64 16 -58 53 -33 hvcurveto
            -6 vlineto
            -56 -7 -14 -31 -37 vvcurveto
            -43 29 -20 44 -8 vhcurveto
            -4 vlineto
            return
          </CharString>
          <CharString index="31">
            319 253 rmoveto
            141 hlineto
            -106 -2 -31 -76 -121 hhcurveto
            -134 -22 93 190 190 22 105 133 hvcurveto
            return
          </CharString>
          <CharString index="32">
            -52 -19 38 36 hvcurveto
            -78 hlineto
            -72 23 -58 124 126 23 58 72 vhcurveto
            endchar
          </CharString>
          <CharString index="33">
            60 vlineto
            -76 20 rlineto
            420 -185 -60 vlineto
            return
          </CharString>
          <CharString index="34">
            75 -75 235 88 83 94 -7 callsubr
            return
          </CharString>
          <CharString index="35">
            rmoveto
            109 45 -157 -156 52 hlineto
            17 15 12 18 24 7 -19 -32 -31 -6 -24 -27 -23 -8 18 23 vhcurveto
            -57 hlineto
            -52 28 -37 64 63 23 44 55 61 -27 29 -48 -26 -12 -7 -12 -12 vhcurveto
            endchar
          </CharString>
          <CharString index="36">
            23 7 -11 -20 -21 -8 -20 -43 hvcurveto
            -39 vlineto
            48 9 -16 -28 -21 -6 -16 -30 hvcurveto
            return
          </CharString>
          <CharString index="37">
            hstemhm
            30 -38 callsubr
            hintmask 11011001
            -10 callsubr
            hintmask 11010110
            -76 callgsubr
            hintmask 10111010
            -23 callgsubr
            hintmask 11011010
            -60 vlineto
            hintmask 11010110
            -63 callsubr
            hintmask 11011010
            -2 callgsubr
            hintmask 11010101
            -49 callsubr
            218 vlineto
            64 35 78 78 81 10 -62 -71 vhcurveto
            return
          </CharString>
          <CharString index="38">
            13 150 rlineto
            263 hlineto
            -375 -560 rlineto
            -85 499 vlineto
            return
          </CharString>
          <CharString index="39">
            -45 callgsubr
            -93 -20 rlineto
            return
          </CharString>
          <CharString index="40">
            -5 -104 callgsubr
            return
          </CharString>
          <CharString index="41">
            -215 rmoveto
            141 58 36 65 46 -29 21 -44 -9 -20 -1 -4 -15 hvcurveto
            return
          </CharString>
          <CharString index="42">
            rmoveto
            21 30 19 52 28 vvcurveto
            39 -27 17 -27 -30 -23 -22 -31 -30 22 -23 29 vhcurveto
            -4 -19 -10 -22 -13 -19 rrcurveto
            endchar
          </CharString>
          <CharString index="43">
            -40 -41 -24 -29 -48 vvcurveto
            -84 callgsubr
            return
          </CharString>
          <CharString index="44">
            76 -20 rlineto
            -340 vlineto
            -6 callsubr
            -60 vlineto
            return
          </CharString>
          <CharString index="45">
            -214 rmoveto
            96 hlineto
            -10 249 rlineto
            -25 15 31 -20 42 hhcurveto
            52 51 31 62 13 hvcurveto
            hintmask 10111010
            -41 callsubr
            hintmask 11011010
            60 vlineto
            -76 -36 callsubr
            -60 vlineto
            hintmask 11011001
            -5 callgsubr
            -231 vlineto
            -64 -30 -65 -79 -67 -18 47 76 vhcurveto
            317 16 callgsubr
            hintmask 11010110
            -5 callgsubr
            endchar
          </CharString>
          <CharString index="46">
            13 150 rlineto
            141 -565 hlineto
            -103 -20 rlineto
            -60 305 60 vlineto
            -103 20 rlineto
            565 140 vlineto
            return
          </CharString>
          <CharString index="47">
            -20 rlineto
            -560 vlineto
            return
          </CharString>
          <CharString index="48">
            14 -39 callsubr
            196 -20 hstemhm
            hintmask 10101000
            49 callsubr
            hintmask 10011000
            -69 callsubr
            hintmask 01101000
            244 -79 vlineto
            hintmask 10101000
            -68 callgsubr
            return
          </CharString>
          <CharString index="49">
            173 -70 -16 callsubr
            return
          </CharString>
          <CharString index="50">
            rmoveto
            84 13 54 38 37 -12 53 -72 -33 -19 -11 -21 -7 hvcurveto
            -4 hlineto
            58 1 14 31 38 hhcurveto
            27 6 -15 -22 hvcurveto
            50 hlineto
            45 -19 39 -66 -80 -21 -57 -107 -52 5 -70 95 vhcurveto
            1 47 rmoveto
            -40 -3 29 16 16 3 30 39 39 2 -29 -16 -20 -3 -26 -37 hvcurveto
            endchar
          </CharString>
          <CharString index="51">
            vvcurveto
            -84 callgsubr
            vhcurveto
            return
          </CharString>
          <CharString index="52">
            82 -82 233 -201 -21 649 82 -11 -20 return
          </CharString>
          <CharString index="53">
            rmoveto
            -39 -27 -24 -30 vhcurveto
            return
          </CharString>
          <CharString index="54">
            -21 -3 callgsubr
            return
          </CharString>
          <CharString index="55">
            rmoveto
            -103 hlineto
            97 -155 rlineto
            61 hlineto
            endchar
          </CharString>
          <CharString index="56">
            101 51 -61 -113 hvcurveto
            99 245 -79 hlineto
            -19 -89 24 callgsubr
            return
          </CharString>
          <CharString index="57">
            94 73 -94 131 -75 vlineto
            -20 -131 -6 callsubr
            return
          </CharString>
          <CharString index="58">
            -75 20 rlineto
            return
          </CharString>
          <CharString index="59">
            hstemhm
            -47 callgsubr
            return
          </CharString>
          <CharString index="60">
            20 14 -9 -21 -17 -13 -17 -19 -22 hvcurveto
            -96 -111 rlineto
            -36 189 vlineto
            endchar
          </CharString>
          <CharString index="61">
            109 102 -109 hlineto
            return
          </CharString>
          <CharString index="62">
            vlineto
            -20 -63 rlineto
            -4 hlineto
            return
          </CharString>
          <CharString index="63">
            60 -60 192 155 -58 callsubr
            return
          </CharString>
          <CharString index="64">
            158 80 60 162 60 return
          </CharString>
          <CharString index="65">
            52 51 -58 callsubr
            return
          </CharString>
          <CharString index="66">
            20 -83 rlineto
            151 hlineto
            return
          </CharString>
          <CharString index="67">
            rmoveto
            42 30 31 40 42 -30 29 -42 -41 -30 -29 -42 -40 30 -31 41 hvcurveto
            46 vmoveto
            -14 -10 11 14 hvcurveto
            return
          </CharString>
          <CharString index="68">
            0 -30 callsubr
            return
          </CharString>
          <CharString index="69">
            -23 callsubr
            204 3 callgsubr
            return
          </CharString>
          <CharString index="70">
            -63 -32 44 100 hvcurveto
            -84 hlineto
            -1 -13 -1 -13 -12 vvcurveto
            return
          </CharString>
          <CharString index="71">
            20 rlineto
            420 -170 return
          </CharString>
          <CharString index="72">
            rmoveto
            -37 -8 rlineto
            -39 124 39 vlineto
            -37 8 rlineto
            hintmask 01010000
            33 37 40 -37 vlineto
            hintmask 00110000
            -34 callsubr
            hintmask 10010000
            -113 -73 vlineto
            endchar
          </CharString>
          <CharString index="73">
            156 -69 vlineto
            -109 -162 rlineto
            -34 128 vlineto
            153 vmoveto
            return
          </CharString>
          <CharString index="74">
            hmoveto
            -7 callgsubr
            return
          </CharString>
          <CharString index="75">
            -310 63 rmoveto
            -41 -51 22 62 42 25 39 80 6 hvcurveto
            89 6 rlineto
            -42 vlineto
            -65 -23 -70 -79 vhcurveto
            309 394 rmoveto
            69 21 -50 -104 hvcurveto
            -195 hlineto
            94 4 21 60 80 hhcurveto
            return
          </CharString>
          <CharString index="76">
            -65 20 rlineto
            107 vlineto
            40 47 158 -234 rlineto
            132 60 hlineto
            -77 20 -151 225 104 120 89 15 rlineto
            60 -132 vlineto
            -163 -207 rlineto
            462 16 callgsubr
            return
          </CharString>
          <CharString index="77">
            75 -75 244 251 225 -75 75 return
          </CharString>
          <CharString index="78">
            -215 127 return
          </CharString>
          <CharString index="79">
            rmoveto
            92 15 57 86 85 -15 58 -93 -92 -14 -56 -87 -87 14 -56 93 hvcurveto
            1 48 rmoveto
            -39 -13 34 61 59 13 36 39 39 11 -38 -58 -58 -11 -36 -39 hvcurveto
            endchar
          </CharString>
          <CharString index="80">
            13 -145 rlineto
            79 220 -648 -55 hlineto
            80 -9 -189 -576 -90 -20 rlineto
            -60 306 65 vlineto
            -110 15 50 171 rlineto
            225 hlineto
            36 -171 rlineto
            return
          </CharString>
          <CharString index="81">
            -98 -225 72 161 68 63 68 233 -16 callsubr
            return
          </CharString>
          <CharString index="82">
            347 510 rmoveto
            -67 -63 -29 -61 -22 hvcurveto
            return
          </CharString>
          <CharString index="83">
            -80 -58 42 109 hvcurveto
            -100 hlineto
            return
          </CharString>
          <CharString index="84">
            246 4 callgsubr
            return
          </CharString>
          <CharString index="85">
            -20 63 rlineto
            -65 hlineto
            return
          </CharString>
          <CharString index="86">
            -15 callsubr
            104 185 return
          </CharString>
          <CharString index="87">
            245 -79 vlineto
            -20 -93 24 callgsubr
            return
          </CharString>
          <CharString index="88">
            -279 -16 callgsubr
            return
          </CharString>
          <CharString index="89">
            rmoveto
            -130 214 rlineto
            -104 hlineto
            139 -214 -139 -206 rlineto
            104 hlineto
            return
          </CharString>
          <CharString index="90">
            52 -11 82 -50 -21 253 83 313 82 -11 -20 return
          </CharString>
          <CharString index="91">
            70 -10 -20 return
          </CharString>
          <CharString index="92">
            hstemhm
            15 156 -96 96 return
          </CharString>
          <CharString index="93">
            -67 -10 60 400 60 return
          </CharString>
          <CharString index="94">
            hintmask 11100100
            14 callsubr
            hintmask 11101000
            26 callsubr
            hintmask 11100100
            -73 -20 rlineto
            return
          </CharString>
          <CharString index="95">
            -56 -43 66 -89 hhcurveto
            -87 -27 -64 -62 hvcurveto
            61 hlineto
            41 30 15 24 vhcurveto
            return
          </CharString>
          <CharString index="96">
            -20 -37 callgsubr
            return
          </CharString>
          <CharString index="97">
            405 hmoveto
            171 60 hlineto
            return
          </CharString>
          <CharString index="98">
            -155 56 vlineto
            20 62 rlineto
            return
          </CharString>
          <CharString index="99">
            5 callsubr
            85 return
          </CharString>
          <CharString index="100">
            220 -75 75 return
          </CharString>
          <CharString index="101">
            -75 -20 rlineto
            return
          </CharString>
          <CharString index="102">
            hintmask 11101000
            13 -33 callsubr
            hintmask 11110010
            8 callsubr
            hintmask 11100110
            -19 callgsubr
            return
          </CharString>
          <CharString index="103">
            10 -103 rlineto
            79 336 -240 hlineto
            return
          </CharString>
          <CharString index="104">
            720 rmoveto
            return
          </CharString>
          <CharString index="105">
            13 callsubr
            hintmask 11010000
            42 -186 hlineto
            hintmask 11100000
            -38 callgsubr
            endchar
          </CharString>
          <CharString index="106">
            -29 callsubr
            109 -21 return
          </CharString>
          <CharString index="107">
            -10 59 -28 -21 308 60 -16 59 259 60 -10 -20 hstemhm
            26 75 140 75 132 75 140 75 return
          </CharString>
          <CharString index="108">
            -12 -11 -55 callsubr
            return
          </CharString>
          <CharString index="109">
            -49 callsubr
            675 return
          </CharString>
          <CharString index="110">
            -163 85 vlineto
            return
          </CharString>
          <CharString index="111">
            -14 -160 rlineto
            -153 hlineto
            -55 248 rlineto
            201 83 -222 hlineto
            -51 239 rlineto
            274 hlineto
            return
          </CharString>
          <CharString index="112">
            hstemhm
            33 97 -68 return
          </CharString>
          <CharString index="113">
            rmoveto
            132 hlineto
            -239 207 239 213 rlineto
            -124 hlineto
            -210 -181 rlineto
            -66 vlineto
            return
          </CharString>
          <CharString index="114">
            76 -20 rlineto
            -595 vlineto
            -6 callsubr
            return
          </CharString>
          <CharString index="115">
            2 callsubr
            -170 -60 vlineto
            return
          </CharString>
          <CharString index="116">
            60 -285 -60 vlineto
            return
          </CharString>
          <CharString index="117">
            39 -42 -59 23 -86 hhcurveto
            -234 -37 -166 -204 -98 9 -90 36 -66 hvcurveto
            -79 -107 rlineto
            return
          </CharString>
          <CharString index="118">
            521 -21 220 -20 hstem
            return
          </CharString>
          <CharString index="119">
            -8 callsubr
            177 return
          </CharString>
          <CharString index="120">
            rmoveto
            -91 -8 rlineto
            -37 vlineto
            return
          </CharString>
          <CharString index="121">
            30 -33 callsubr
            return
          </CharString>
          <CharString index="122">
            vhcurveto
            321 vlineto
            return
          </CharString>
          <CharString index="123">
            -27 -51 24 -66 hhcurveto
            hintmask 1110001110000000
            -114 -55 -73 -125 hvcurveto
            -45 vlineto
            hintmask 1110010110000000
            -75 return
          </CharString>
          <CharString index="124">
            rmoveto
            314 73 -314 hlineto
            endchar
          </CharString>
          <CharString index="125">
            -57 callgsubr
            119 127 return
          </CharString>
          <CharString index="126">
            hstemhm
            30 -40 callgsubr
            return
          </CharString>
          <CharString index="127">
            rmoveto
            -170 -60 hlineto
            return
          </CharString>
          <CharString index="128">
            -36 -18 -38 -52 vhcurveto
            return
          </CharString>
          <CharString index="129">
            -215 39 65 64 return
          </CharString>
          <CharString index="130">
            hstemhm
            41 106 return
          </CharString>
          <CharString index="131">
            -60 vlineto
            -100 callsubr
            return
          </CharString>
          <CharString index="132">
            hintmask 1110001110000000
            75 -347 hlineto
            hintmask 1110010110000000
            -6 callsubr
            -60 244 60 vlineto
            return
          </CharString>
          <CharString index="133">
            -64 callgsubr
            hintmask 11100010
            -35 callgsubr
            return
          </CharString>
          <CharString index="134">
            hmoveto
            42 hlineto
            -27 -111 rlineto
            52 hlineto
            42 111 rlineto
            101 -109 vlineto
            return
          </CharString>
          <CharString index="135">
            49 55 -66 86 hhcurveto
            81 36 59 74 hvcurveto
            return
          </CharString>
          <CharString index="136">
            18 callsubr
            19 callsubr
            return
          </CharString>
          <CharString index="137">
            47 81 39 72 47 hstemhm
            35 178 -63 63 hintmask 11110000
            120 return
          </CharString>
          <CharString index="138">
            -20 hstemhm
            13 170 vstemhm
            183 500 20 callsubr
            return
          </CharString>
          <CharString index="139">
            0 60 -60 204 -193 -21 730 -20 -48 callsubr
            return
          </CharString>
          <CharString index="140">
            -200 21 -21 54 callgsubr
            return
          </CharString>
          <CharString index="141">
            hstemhm
            31 244 -169 95 180 return
          </CharString>
          <CharString index="142">
            -20 hstemhm
            57 100 249 88 -88 100 return
          </CharString>
          <CharString index="143">
            hstemhm
            30 -23 callsubr
            return
          </CharString>
          <CharString index="144">
            86 44 244 -99 99 return
          </CharString>
          <CharString index="145">
            -49 callsubr
            420 -275 44 vlineto
            101 18 54 77 vhcurveto
            return
          </CharString>
          <CharString index="146">
            532 -11 rmoveto
            143 36 74 85 1 hvcurveto
            -87 hlineto
            return
          </CharString>
          <CharString index="147">
            47 91 44 57 47 hstem
            35 50 86 61 vstem
            135 return
          </CharString>
          <CharString index="148">
            -33 -6 callgsubr
            205 70 380 -16 callsubr
            hstemhm
            return
          </CharString>
          <CharString index="149">
            -33 -10 70 -39 -21 440 70 return
          </CharString>
          <CharString index="150">
            -73 -20 rlineto
            117 539 rmoveto
            return
          </CharString>
          <CharString index="151">
            56 -56 130 hstemhm
            return
          </CharString>
          <CharString index="152">
            0 75 350 75 return
          </CharString>
          <CharString index="153">
            -60 vlineto
            84 -20 rlineto
            return
          </CharString>
          <CharString index="154">
            -239 -215 70 370 70 355 70 hstemhm
            return
          </CharString>
          <CharString index="155">
            48 190 48 hstem
            35 56 102 56 vstem
            142 return
          </CharString>
          <CharString index="156">
            56 23 callgsubr
            hlineto
            return
          </CharString>
          <CharString index="157">
            hlineto
            38 255 rlineto
            -70 hlineto
            -38 -255 rlineto
            return
          </CharString>
          <CharString index="158">
            19 callsubr
            4 callgsubr
            return
          </CharString>
          <CharString index="159">
            -20 hstemhm
            46 104 307 103 return
          </CharString>
          <CharString index="160">
            hmoveto
            -46 callsubr
            return
          </CharString>
          <CharString index="161">
            -55 vlineto
            -20 -63 rlineto
            return
          </CharString>
          <CharString index="162">
            -4 120 -95 -21 76 40 -40 196 return
          </CharString>
          <CharString index="163">
            94 -11 72 -40 -21 659 72 -10 -20 return
          </CharString>
          <CharString index="164">
            75 hstem
            129 99 288 104 vstem
            36 return
          </CharString>
          <CharString index="165">
            -63 -68 -29 -25 11 23 -14 vhcurveto
            endchar
          </CharString>
        <CharString name=".notdef">
          -365 endchar
        </CharString>
        <CharString name="A">
          -42 callgsubr
          hstem
          -104 callsubr
          endchar
        </CharString>
        <CharString name="AE">
          329 10 callgsubr
          16 83 -11 83 94 -7 callsubr
          hstemhm
          hintmask 10101000
          395 60 rmoveto
          -60 450 vlineto
          hintmask 01101000
          6 callgsubr
          vlineto
          hintmask 10010100
          4 callsubr
          hintmask 10101000
          -27 callsubr
          hintmask 10100100
          30 callgsubr
        </CharString>
        <CharString name="AEacute">
          329 10 callgsubr
          16 83 -11 83 94 -7 callsubr
          196 -20 hstemhm
          hintmask 10101010
          520 41 callgsubr
          -220 -856 rmoveto
          -60 450 vlineto
          hintmask 01101010
          6 callgsubr
          vlineto
          hintmask 10010110
          4 callsubr
          hintmask 10101010
          -27 callsubr
          hintmask 10100110
          30 callgsubr
        </CharString>
        <CharString name="Aacute">
          -42 callgsubr
          216 -20 hstem
          -104 callsubr
          52 462 -92 callgsubr
          endchar
        </CharString>
        <CharString name="Abreve">
          -42 callgsubr
          91 45 callgsubr
          174 83 152 81 hintmask 11101110
          -104 callsubr
          169 592 rmoveto
          hintmask 11110110
          21 callgsubr
          hintmask 11101110
          -75 callgsubr
        </CharString>
        <CharString name="Acircumflex">
          -42 callgsubr
          216 -20 hstem
          -104 callsubr
          156 587 -92 callsubr
        </CharString>
        <CharString name="Adieresis">
          -42 callgsubr
          91 118 hstem
          170 -8 callgsubr
          vstem
          -104 callsubr
          -10 462 rmoveto
          -105 callgsubr
        </CharString>
        <CharString name="Agrave">
          -42 callgsubr
          91 125 hstem
          -104 callsubr
          59 587 -62 callgsubr
        </CharString>
        <CharString name="Amacron">
          -42 callgsubr
          121 63 hstem
          -104 callsubr
          -44 492 -60 callgsubr
        </CharString>
        <CharString name="Aogonek">
          99 -210 69 162 -29 callgsubr
          hstemhm
          475 55 callgsubr
          hintmask 11110100
          66 80 rmoveto
          -74 -20 rlineto
          -60 264 60 vlineto
          -90 20 49 166 rlineto
          234 hlineto
          49 -166 -89 -20 rlineto
          -60 130 vlineto
          -64 callsubr
          vhcurveto
          hintmask 11111000
          -20 callgsubr
          hvcurveto
          73 60 hlineto
          -74 20 -196 640 rlineto
          -140 hlineto
          70 -77 rmoveto
          92 -314 rlineto
          -185 hlineto
          endchar
        </CharString>
        <CharString name="Aring">
          -42 callgsubr
          91 142 -48 48 hstemhm
          260 47 48 48 hintmask 11110110
          -104 callsubr
          92 462 -40 callsubr
          hintmask 11101110
          -11 callgsubr
          vhcurveto
          endchar
        </CharString>
        <CharString name="Aringacute">
          101 21 -21 236 83 404 -20 68 48 131 -20 hstem
          262 47 48 48 vstem
          67 80 rmoveto
          -74 -20 rlineto
          -60 264 60 vlineto
          -90 20 47 156 rlineto
          237 hlineto
          48 -156 -89 -20 rlineto
          -60 263 15 callgsubr
          -196 614 rlineto
          -22 hlineto
          15 13 9 19 22 vvcurveto
          42 -30 29 -42 -41 -30 -29 -42 -22 9 -19 14 -13 vhcurveto
          -22 hlineto
          70 -67 rmoveto
          93 -308 rlineto
          -187 hlineto
          55 506 -92 callgsubr
          -56 -227 rmoveto
          -14 -10 11 14 -11 callgsubr
          hvcurveto
          endchar
        </CharString>
        <CharString name="Atilde">
          -42 callgsubr
          91 -13 callgsubr
          hintmask 11110000
          -104 callsubr
          219 595 -54 callsubr
          hintmask 11101000
          -97 callgsubr
          hintmask 11110000
          -85 callgsubr
        </CharString>
        <CharString name="B">
          28 0 75 276 38 4 33 219 75 -48 callsubr
          197 104 -74 74 -74 104 hintmask 11111001
          33 660 rmoveto
          -68 callsubr
          -60 285 vlineto
          202 36 90 124 101 -56 74 -107 hvcurveto
          4 vlineto
          hintmask 11111010
          99 1 34 58 84 vvcurveto
          121 -32 63 -186 vhcurveto
          -275 hlineto
          192 -645 rmoveto
          276 104 vlineto
          98 25 -47 -90 -85 -22 -54 -108 hvcurveto
          hintmask 11111100
          100 461 rmoveto
          -69 -20 -41 -84 vhcurveto
          -93 219 87 hlineto
          91 19 -41 -68 hvcurveto
          endchar
        </CharString>
        <CharString name="C">
          39 -32 callgsubr
          -11 52 callsubr
          hintmask 11011000
          -36 callgsubr
          hintmask 10111000
          -20 callsubr
          hintmask 11011000
          -91 callgsubr
          endchar
        </CharString>
        <CharString name="CR">
          -415 endchar
        </CharString>
        <CharString name="Cacute">
          39 -32 callgsubr
          -11 -20 216 52 callsubr
          hintmask 11011100
          -36 callgsubr
          hintmask 10111100
          -20 callsubr
          hintmask 11011100
          -91 callgsubr
          -47 132 -92 callgsubr
          endchar
        </CharString>
        <CharString name="Ccaron">
          39 -32 callgsubr
          -11 -20 216 52 callsubr
          hintmask 11011100
          -36 callgsubr
          hintmask 10111100
          -20 callsubr
          hintmask 11011100
          -91 callgsubr
          162 257 -84 callsubr
        </CharString>
        <CharString name="Ccedilla">
          40 22 callsubr
          36 72 598 72 -11 -20 hstemhm
          47 104 170 88 49 99 hintmask 11110111
          210 -66 callsubr
          17 41 rlineto
          188 64 114 147 hvcurveto
          -100 hlineto
          -104 -29 -85 -119 -141 -21 119 177 190 24 112 130 103 50 -71 -113 vhcurveto
          99 hlineto
          hintmask 11101111
          -20 callsubr
          hintmask 11110111
          84 -15 -61 20 -78 hhcurveto
          -222 -30 -160 -196 -212 35 -149 178 -22 hvcurveto
          -43 -103 rlineto
          -66 callgsubr
        </CharString>
        <CharString name="Ccircumflex">
          39 -32 callgsubr
          -11 -20 216 52 callsubr
          hintmask 11011100
          -36 callgsubr
          hintmask 10111100
          -20 callsubr
          hintmask 11011100
          -91 callgsubr
          67 257 -92 callsubr
        </CharString>
        <CharString name="Cdotaccent">
          39 -32 callgsubr
          -11 -20 91 127 hstemhm
          46 104 82 128 97 103 hintmask 11011110
          -36 callgsubr
          hintmask 10111110
          -20 callsubr
          hintmask 11011110
          -91 callgsubr
          -8 132 rmoveto
          -107 callgsubr
        </CharString>
        <CharString name="D">
          98 0 75 570 75 -58 callgsubr
          endchar
        </CharString>
        <CharString name="Dcaron">
          98 0 75 570 75 216 -20 -58 callgsubr
          151 216 -86 callsubr
        </CharString>
        <CharString name="Dcroat">
          101 0 75 267 63 240 57 callsubr
          342 rmoveto
          93 -262 -4 callgsubr
          -235 -93 vlineto
          293 240 rmoveto
          170 17 -106 -172 -162 -7 -130 -169 hvcurveto
          -112 267 112 63 -112 240 hlineto
          endchar
        </CharString>
        <CharString name="Ddotbelow">
          98 -29 callsubr
          88 75 570 75 hstem
          -47 callgsubr
          19 128 141 -79 callgsubr
          -14 -935 rmoveto
          -107 callgsubr
        </CharString>
        <CharString name="E">
          0 0 32 callgsubr
          hintmask 01110100
          -54 callgsubr
          hintmask 10101100
          -91 callsubr
          hintmask 10110100
          -93 callsubr
          endchar
        </CharString>
        <CharString name="Eacute">
          0 0 -73 callsubr
          196 -20 -48 callsubr
          hintmask 01110110
          -54 callgsubr
          hintmask 10101110
          -91 callsubr
          hintmask 10110110
          -93 callsubr
          223 731 -92 callgsubr
          endchar
        </CharString>
        <CharString name="Ebreve">
          0 0 -73 callsubr
          71 45 callgsubr
          126 99 -86 86 hintmask 0111010100000000
          -54 callgsubr
          hintmask 1010110100000000
          -91 callsubr
          hintmask 1011001100000000
          -93 callsubr
          340 861 rmoveto
          hintmask 1011010100000000
          21 callgsubr
          hintmask 1011001010000000
          -75 callgsubr
        </CharString>
        <CharString name="Ecaron">
          0 0 -73 callsubr
          196 -20 -48 callsubr
          hintmask 01110110
          -54 callgsubr
          hintmask 10101110
          -91 callsubr
          hintmask 10110110
          -93 callsubr
          432 856 -84 callsubr
        </CharString>
        <CharString name="Ecircumflex">
          0 0 -73 callsubr
          196 -20 -48 callsubr
          hintmask 01110110
          -54 callgsubr
          hintmask 10101110
          -91 callsubr
          hintmask 10110110
          -93 callsubr
          327 856 -92 callsubr
        </CharString>
        <CharString name="Edieresis">
          0 0 -73 callsubr
          71 118 -48 callsubr
          -99 128 87 119 hintmask 0111011010000000
          -54 callgsubr
          hintmask 1010111010000000
          -91 callsubr
          hintmask 1011011010000000
          -93 callsubr
          161 731 rmoveto
          hintmask 1011010110000000
          -105 callgsubr
        </CharString>
        <CharString name="Edotaccent">
          0 0 -73 callsubr
          71 127 -48 callsubr
          9 128 hintmask 01110111
          -54 callgsubr
          hintmask 10101111
          -91 callsubr
          hintmask 10110111
          -93 callsubr
          265 731 rmoveto
          -107 callgsubr
        </CharString>
        <CharString name="Edotbelow">
          0 -29 callsubr
          88 32 callgsubr
          8 128 hintmask 10111011
          -54 callgsubr
          hintmask 11010111
          -91 callsubr
          hintmask 11011011
          -93 callsubr
          264 -275 rmoveto
          -107 callgsubr
        </CharString>
        <CharString name="Egrave">
          0 0 -73 callsubr
          71 125 -48 callsubr
          hintmask 01110110
          -54 callgsubr
          hintmask 10101110
          -91 callsubr
          hintmask 10110110
          -93 callsubr
          230 856 -62 callgsubr
        </CharString>
        <CharString name="Emacron">
          0 0 -73 callsubr
          101 63 -48 callsubr
          hintmask 01110110
          -54 callgsubr
          hintmask 10101110
          -91 callsubr
          hintmask 10110110
          -93 callsubr
          127 761 -60 callgsubr
        </CharString>
        <CharString name="Eng">
          195 -225 79 167 -53 callsubr
          hstem
          -47 callgsubr
          322 99 vstem
          367 29 callgsubr
          650 vlineto
          93 25 callgsubr
          -265 -60 vlineto
          73 -60 callsubr
          -249 640 rlineto
          -265 -60 hlineto
          -68 callsubr
          -60 265 60 vlineto
          -73 20 rlineto
          560 vlineto
          249 -640 rlineto
          77 -14 hlineto
          -69 -4 58 callsubr
        </CharString>
        <CharString name="Eogonek">
          0 -210 69 141 32 callgsubr
          -10 55 callgsubr
          hintmask 1101100010000000
          33 hmoveto
          246 hlineto
          -64 callsubr
          vhcurveto
          hintmask 1101100100000000
          -20 callgsubr
          hvcurveto
          174 hlineto
          hintmask 1011101000000000
          6 callgsubr
          vlineto
          hintmask 1101011000000000
          -91 callsubr
          hintmask 1101101000000000
          -93 callsubr
          endchar
        </CharString>
        <CharString name="Eth">
          101 0 75 262 73 235 57 callsubr
          337 rmoveto
          93 -257 -4 callgsubr
          -230 -93 vlineto
          293 235 rmoveto
          170 17 -106 -172 -162 -7 -130 -169 hvcurveto
          -112 262 122 73 -122 235 hlineto
          endchar
        </CharString>
        <CharString name="Etilde">
          0 0 -73 callsubr
          71 70 -4 70 -48 callsubr
          hintmask 01110101
          -54 callgsubr
          hintmask 10101101
          -91 callsubr
          hintmask 10110101
          -93 callsubr
          390 864 -54 callsubr
          hintmask 10110011
          -97 callgsubr
          hintmask 10110101
          -85 callgsubr
        </CharString>
        <CharString name="Euro">
          57 -11 72 -72 215 32 73 100 73 33 215 -72 72 hstemhm
          98 104 279 100 hintmask 01111011
          32 409 rmoveto
          66 -100 -66 -73 72 hlineto
          -151 17 60 -96 171 hhcurveto
          157 72 87 128 hvcurveto
          -100 hlineto
          hintmask 10110111
          -86 -37 -57 -88 -105 -35 61 114 -10 vhcurveto
          140 73 -144 100 144 73 -140 hlineto
          114 10 34 62 106 hhcurveto
          hintmask 10111011
          89 36 -56 -87 hvcurveto
          100 hlineto
          128 -73 87 -156 -172 -59 -97 -151 -17 vhcurveto
          -72 hlineto
          endchar
        </CharString>
        <CharString name="F">
          -31 21 -21 313 83 104 -7 callsubr
          -48 callsubr
          hintmask 11101000
          424 500 rmoveto
          79 220 -470 -60 hlineto
          -68 callsubr
          -60 305 65 vlineto
          -113 15 rlineto
          233 178 83 -178 vlineto
          hintmask 11011000
          249 186 vlineto
          endchar
        </CharString>
        <CharString name="G">
          -17 callsubr
          hstemhm
          46 104 169 240 -102 102 hintmask 10110110
          -76 callsubr
          hintmask 10101101
          -51 callsubr
          hintmask 10110110
          -77 callgsubr
          hintmask 01110110
          -4 callsubr
          endchar
        </CharString>
        <CharString name="Gbreve">
          -17 callsubr
          91 45 callgsubr
          46 104 -10 83 96 240 -102 102 hintmask 1011010101000000
          -76 callsubr
          hintmask 1010110100100000
          -51 callsubr
          hintmask 1011010101000000
          -77 callgsubr
          hintmask 0111001101000000
          -4 callsubr
          55 585 rmoveto
          hintmask 1011010101000000
          21 callgsubr
          hintmask 1011001011000000
          -75 callgsubr
        </CharString>
        <CharString name="Gcircumflex">
          -17 callsubr
          216 -20 hstemhm
          46 104 169 240 -102 102 hintmask 1011011100000000
          -76 callsubr
          hintmask 1010111010000000
          -51 callsubr
          hintmask 1011011100000000
          -77 callgsubr
          hintmask 0111011100000000
          -4 callsubr
          57 580 -92 callsubr
        </CharString>
        <CharString name="Gcommaaccent">
          52 -22 callgsubr
          32 32 -21 71 182 0 83 0 139 174 82 -11 -20 hstemhm
          46 104 98 99 -28 240 -102 102 hintmask 1111011010100000
          -76 callsubr
          hintmask 1111010111010000
          -51 callsubr
          hintmask 1111101010100000
          -77 callgsubr
          -4 callsubr
          hintmask 1111011011010000
          -71 -470 -89 callsubr
        </CharString>
        <CharString name="Gdotaccent">
          -17 callsubr
          91 127 hstemhm
          46 104 85 128 -44 240 -102 102 hintmask 1011011010000000
          -76 callsubr
          hintmask 1010111101000000
          -51 callsubr
          hintmask 1011011101000000
          -77 callgsubr
          hintmask 0111011010000000
          -4 callsubr
          -20 455 rmoveto
          hintmask 1011011101000000
          -107 callgsubr
        </CharString>
        <CharString name="H">
          174 21 -21 323 83 314 -20 hstem
          -47 callgsubr
          289 99 vstem
          706 -3 callsubr
          -285 -60 hlineto
          93 -20 rlineto
          -234 -289 234 vlineto
          93 20 rlineto
          60 -285 24 callsubr
          243 289 -243 -101 callgsubr
          560 vlineto
          -17 callgsubr
          endchar
        </CharString>
        <CharString name="Hbar">
          176 21 -21 323 83 89 63 -63 225 hstemhm
          127 99 289 99 hintmask 11011100
          707 -3 callsubr
          -285 -60 hlineto
          93 -20 rlineto
          hintmask 11101100
          -82 -289 82 vlineto
          -17 callgsubr
          hintmask 11011100
          9 callsubr
          93 -20 rlineto
          hintmask 11101100
          -82 -93 -63 93 -415 -101 callgsubr
          243 289 -243 -101 callgsubr
          415 93 63 -93 82 vlineto
          -17 callgsubr
          hintmask 11011100
          -481 -254 rmoveto
          89 289 -89 vlineto
          endchar
        </CharString>
        <CharString name="Hcircumflex">
          174 21 -21 323 83 314 -20 216 -20 hstem
          -47 callgsubr
          289 99 vstem
          706 -3 callsubr
          -285 -60 hlineto
          93 -20 rlineto
          -234 -289 234 vlineto
          93 20 rlineto
          60 -285 24 callsubr
          243 289 -243 -101 callgsubr
          560 vlineto
          -17 callgsubr
          -274 256 -92 callsubr
        </CharString>
        <CharString name="Hdotbelow">
          174 -1 callsubr
          323 83 314 -20 hstem
          -47 callgsubr
          79 128 82 99 vstem
          706 -3 callsubr
          -285 -60 hlineto
          93 -20 rlineto
          -234 -289 234 vlineto
          93 20 rlineto
          60 -285 24 callsubr
          243 289 -243 -101 callgsubr
          560 vlineto
          -17 callgsubr
          -338 -875 rmoveto
          -107 callgsubr
        </CharString>
        <CharString name="I">
          52 callgsubr
          hstem
          -47 callgsubr
          vstem
          -101 callsubr
          endchar
        </CharString>
        <CharString name="IJ">
          253 32 callsubr
          143 37 callsubr
          hintmask 10011110
          -101 callsubr
          hintmask 00111110
          235 -670 -41 callgsubr
          hintmask 10011101
          -30 callgsubr
          hintmask 01011110
          -37 callsubr
          hintmask 00111110
          12 callgsubr
          endchar
        </CharString>
        <CharString name="Iacute">
          52 callgsubr
          216 -20 hstem
          -47 callgsubr
          vstem
          -101 callsubr
          -184 131 -92 callgsubr
          endchar
        </CharString>
        <CharString name="Ibreve">
          52 callgsubr
          91 45 callgsubr
          17 83 26 99 hintmask 11011100
          -101 callsubr
          -67 261 rmoveto
          hintmask 11101100
          21 callgsubr
          hintmask 11011100
          -75 callgsubr
        </CharString>
        <CharString name="Icircumflex">
          52 callgsubr
          216 -20 hstem
          -47 callgsubr
          vstem
          -101 callsubr
          -80 256 -92 callsubr
        </CharString>
        <CharString name="Idieresis">
          52 callgsubr
          91 118 hstemhm
          13 119 -6 99 -6 119 hintmask 11101000
          -101 callsubr
          -246 131 rmoveto
          hintmask 11110100
          -105 callgsubr
        </CharString>
        <CharString name="Idotaccent">
          52 callgsubr
          91 127 hstemhm
          112 128 -114 99 hintmask 11101000
          -101 callsubr
          -142 131 rmoveto
          hintmask 11110000
          -107 callgsubr
        </CharString>
        <CharString name="Idotbelow">
          -214 -1 callsubr
          720 -20 hstemhm
          111 128 -113 99 hintmask 11101000
          -101 callsubr
          -143 -875 rmoveto
          hintmask 11110000
          -107 callgsubr
        </CharString>
        <CharString name="Igrave">
          52 callgsubr
          91 125 hstem
          -47 callgsubr
          vstem
          -101 callsubr
          -177 256 -62 callgsubr
        </CharString>
        <CharString name="Imacron">
          52 callgsubr
          121 63 hstem
          -47 callgsubr
          vstem
          -101 callsubr
          -280 161 -60 callgsubr
        </CharString>
        <CharString name="Iogonek">
          -214 -210 69 162 -53 callsubr
          hstemhm
          90 55 callgsubr
          -128 99 hintmask 11100100
          318 -3 callsubr
          38 callgsubr
          121 vlineto
          hintmask 11101000
          -64 callsubr
          vhcurveto
          hintmask 11110000
          -20 callgsubr
          hvcurveto
          104 60 hlineto
          hintmask 11100100
          -93 20 rlineto
          560 vlineto
          -17 callgsubr
          endchar
        </CharString>
        <CharString name="Itilde">
          52 callgsubr
          91 70 -4 70 -48 callsubr
          hintmask 11101000
          -101 callsubr
          -17 264 -54 callsubr
          hintmask 11011000
          -97 callgsubr
          hintmask 11101000
          -85 callgsubr
        </CharString>
        <CharString name="J">
          -98 -10 70 660 -20 hstemhm
          17 37 callsubr
          hintmask 11110000
          202 -10 -41 callgsubr
          hintmask 11101000
          -30 callgsubr
          hintmask 11110000
          -37 callsubr
          12 callgsubr
          endchar
        </CharString>
        <CharString name="Jcircumflex">
          -98 -10 70 660 -20 216 -20 hstemhm
          17 37 callsubr
          hintmask 11111000
          202 -10 -41 callgsubr
          hintmask 11110100
          -30 callgsubr
          hintmask 11111000
          -37 callsubr
          12 callgsubr
          138 926 -92 callsubr
        </CharString>
        <CharString name="K">
          113 -69 callgsubr
          hstem
          126 -63 callgsubr
          endchar
        </CharString>
        <CharString name="Kcommaaccent">
          113 -22 callgsubr
          43 -3 callgsubr
          hstem
          -47 callgsubr
          74 -63 callgsubr
          -79 -194 -89 callsubr
        </CharString>
        <CharString name="L">
          -45 10 callgsubr
          485 -20 -48 callsubr
          hintmask 10110000
          -78 callgsubr
          hintmask 01110000
          6 callgsubr
          vlineto
          endchar
        </CharString>
        <CharString name="Lacute">
          -45 10 callgsubr
          485 -20 216 -20 -48 callsubr
          hintmask 10111000
          -78 callgsubr
          hintmask 01111000
          6 callgsubr
          vlineto
          hintmask 10111000
          -281 556 -92 callgsubr
          endchar
        </CharString>
        <CharString name="Lcaron">
          -41 10 callgsubr
          385 100 6 -20 -48 callsubr
          150 118 hintmask 10101100
          -78 callgsubr
          hintmask 01101100
          6 callgsubr
          vlineto
          hintmask 10011100
          28 325 rmoveto
          21 30 19 52 28 vvcurveto
          39 -27 17 -27 -30 -23 -22 -31 vhcurveto
          hintmask 10101100
          -30 22 -23 29 vhcurveto
          -4 -19 -10 -22 -13 -19 rrcurveto
          endchar
        </CharString>
        <CharString name="Lcommaaccent">
          -45 -22 callgsubr
          43 10 callgsubr
          485 -20 -48 callsubr
          -6 99 hintmask 10101100
          400 75 rmoveto
          -175 565 hlineto
          hintmask 11001010
          93 20 rlineto
          9 callsubr
          hintmask 11001100
          -68 callsubr
          -60 460 vlineto
          hintmask 10011100
          6 callgsubr
          vlineto
          hintmask 10101010
          -195 -369 rmoveto
          32 hlineto
          -12 -81 rlineto
          57 hlineto
          22 81 rlineto
          hintmask 11001010
          91 -99 vlineto
          endchar
        </CharString>
        <CharString name="Ldot">
          -45 10 callgsubr
          96 102 287 -20 -48 callsubr
          76 109 hintmask 10111100
          -78 callgsubr
          hintmask 01111100
          6 callgsubr
          vlineto
          hintmask 10111100
          -113 96 rmoveto
          -46 callsubr
          endchar
        </CharString>
        <CharString name="Lslash">
          -42 10 callgsubr
          485 -20 hstemhm
          37 191 -99 99 -99 213 hintmask 10110000
          403 75 rmoveto
          -175 276 hlineto
          hintmask 10100100
          114 34 rlineto
          73 vlineto
          hintmask 10110000
          -114 -34 rlineto
          216 vlineto
          93 20 rlineto
          9 callsubr
          hintmask 10101000
          93 -20 rlineto
          -246 vlineto
          hintmask 10110000
          -92 -27 rlineto
          -73 vlineto
          hintmask 10101000
          92 27 rlineto
          -241 vlineto
          -93 -20 rlineto
          -60 460 vlineto
          hintmask 01110000
          6 callgsubr
          vlineto
          endchar
        </CharString>
        <CharString name="M">
          354 -69 callgsubr
          hstem
          -47 callgsubr
          469 99 vstem
          387 hmoveto
          144 hlineto
          163 645 rlineto
          -565 vlineto
          -73 -20 rlineto
          -60 265 -15 callgsubr
          20 rlineto
          560 vlineto
          93 25 callgsubr
          -265 vlineto
          -162 -632 -161 632 rlineto
          -265 -60 hlineto
          -68 callsubr
          -60 265 60 vlineto
          -73 20 rlineto
          565 vlineto
          endchar
        </CharString>
        <CharString name="N">
          195 -69 callgsubr
          hstem
          -47 callgsubr
          322 99 vstem
          -103 callgsubr
          endchar
        </CharString>
        <CharString name="NULL">
          81 endchar
        </CharString>
        <CharString name="Nacute">
          195 -69 callgsubr
          216 -20 hstem
          -47 callgsubr
          322 99 vstem
          -103 callgsubr
          -204 711 -92 callgsubr
          endchar
        </CharString>
        <CharString name="Ncaron">
          195 -69 callgsubr
          216 -20 hstem
          -47 callgsubr
          322 99 vstem
          -103 callgsubr
          5 836 -84 callsubr
        </CharString>
        <CharString name="Ncommaaccent">
          195 -6 callgsubr
          236 -53 callsubr
          hstem
          -47 callgsubr
          111 99 112 99 vstem
          -103 callgsubr
          -211 -214 -89 callsubr
        </CharString>
        <CharString name="Ndotaccent">
          195 -69 callgsubr
          91 127 hstem
          -47 callgsubr
          96 128 98 99 vstem
          -103 callgsubr
          -162 711 rmoveto
          -107 callgsubr
        </CharString>
        <CharString name="Ntilde">
          195 -69 callgsubr
          91 70 -4 70 -48 callsubr
          322 99 hintmask 11101100
          -103 callgsubr
          -37 844 -54 callsubr
          hintmask 11011100
          -97 callgsubr
          hintmask 11101100
          -85 callgsubr
        </CharString>
        <CharString name="O">
          72 -32 callgsubr
          hstem
          45 104 338 104 vstem
          -106 callsubr
          endchar
        </CharString>
        <CharString name="OE">
          366 -11 72 -72 86 -86 246 -214 -21 323 83 94 -7 callsubr
          -61 61 11 -20 hstemhm
          45 104 338 104 hintmask 0001110001100000
          492 hmoveto
          387 hlineto
          hintmask 0010110001100000
          6 callgsubr
          vlineto
          hintmask 0100101001100000
          -91 callsubr
          hintmask 1000110001100000
          13 -145 rlineto
          79 220 -387 -51 hlineto
          hintmask 1000100011100000
          37 -39 -53 25 -74 hhcurveto
          -234 -47 -166 -204 -205 47 -167 235 73 53 24 37 39 hvcurveto
          hintmask 0001110001100000
          hintmask 1000100101100000
          -171 11 -53 callgsubr
        </CharString>
        <CharString name="Oacute">
          72 -32 callgsubr
          185 -20 hstem
          45 104 338 104 vstem
          -106 callsubr
          -46 730 -92 callgsubr
          endchar
        </CharString>
        <CharString name="Obreve">
          72 -32 callgsubr
          60 45 callgsubr
          45 104 9 83 246 104 hintmask 11011110
          -106 callsubr
          71 860 rmoveto
          hintmask 11101110
          21 callgsubr
          hintmask 11011110
          -75 callgsubr
        </CharString>
        <CharString name="Ocircumflex">
          72 -32 callgsubr
          185 -20 hstem
          45 104 338 104 vstem
          -106 callsubr
          58 855 -92 callsubr
        </CharString>
        <CharString name="Odieresis">
          72 -32 callgsubr
          60 118 hstem
          45 104 5 -8 callgsubr
          8 104 vstem
          -106 callsubr
          -108 730 rmoveto
          -105 callgsubr
        </CharString>
        <CharString name="Odotbelow">
          72 -29 callsubr
          77 72 598 72 hstem
          45 104 108 128 102 104 vstem
          -106 callsubr
          -276 vmoveto
          -107 callgsubr
        </CharString>
        <CharString name="Ograve">
          72 -32 callgsubr
          60 125 hstem
          45 104 338 104 vstem
          -106 callsubr
          -39 855 -62 callgsubr
        </CharString>
        <CharString name="Ohungarumlaut">
          72 -32 callgsubr
          60 125 hstem
          45 104 338 104 vstem
          -106 callsubr
          -141 730 -92 callgsubr
          90 -125 -92 callgsubr
          endchar
        </CharString>
        <CharString name="Omacron">
          72 -32 callgsubr
          90 63 hstem
          45 104 338 104 vstem
          -106 callsubr
          -142 760 -60 callgsubr
        </CharString>
        <CharString name="Oogonek">
          73 -210 69 131 71 598 72 hstemhm
          46 104 90 55 callgsubr
          84 104 hintmask 11110110
          592 359 rmoveto
          202 -39 170 -236 -234 -37 -166 -204 -197 37 -162 211 -12 vhcurveto
          -34 -36 -20 -28 -44 -56 callsubr
          hintmask 11111010
          -30 -13 18 21 19 10 36 29 37 hvcurveto
          205 15 32 162 192 vvcurveto
          -270 -298 -53 callgsubr
        </CharString>
        <CharString name="Oslash">
          56 callsubr
          hstemhm
          60 104 338 104 hintmask 01101100
          105 hmoveto
          39 54 rlineto
          hintmask 10011100
          -1 callgsubr
          hintmask 01101100
          10 callsubr
          hintmask 10101100
          -51 callgsubr
          endchar
        </CharString>
        <CharString name="Oslashacute">
          56 callsubr
          215 -20 hstemhm
          60 104 338 104 hintmask 01101110
          105 hmoveto
          39 54 rlineto
          hintmask 10011110
          -1 callgsubr
          hintmask 01101110
          10 callsubr
          hintmask 10101110
          -51 callgsubr
          125 432 -92 callgsubr
          endchar
        </CharString>
        <CharString name="Otilde">
          72 -32 callgsubr
          60 -13 callgsubr
          45 104 338 104 hintmask 11101100
          -106 callsubr
          121 863 -54 callsubr
          hintmask 11011100
          -97 callgsubr
          hintmask 11101100
          -85 callgsubr
        </CharString>
        <CharString name="P">
          26 21 -21 250 75 320 75 hstem
          -47 callgsubr
          239 102 vstem
          225 80 rmoveto
          170 93 vlineto
          209 39 107 128 127 -21 108 -227 hvcurveto
          38 callgsubr
          285 -15 callgsubr
          265 rmoveto
          320 77 vlineto
          137 25 -67 -97 -88 -23 -68 -139 hvcurveto
          endchar
        </CharString>
        <CharString name="Q">
          73 -142 -21 822 72 hstem
          46 104 338 104 vstem
          46 361 rmoveto
          -166 25 -128 122 -57 vhcurveto
          368 -173 50 87 -204 75 rlineto
          156 39 29 148 173 vvcurveto
          202 -39 170 -236 -234 -37 -166 -204 vhcurveto
          276 -300 -53 callgsubr
        </CharString>
        <CharString name="R">
          69 21 -21 57 callgsubr
          235 101 vstem
          373 hmoveto
          248 60 hlineto
          -64 20 -143 235 rlineto
          123 22 24 81 97 vvcurveto
          112 -32 93 -186 vhcurveto
          -310 -60 hlineto
          -100 callsubr
          230 88 vlineto
          136 -242 -76 -8 rlineto
          -148 325 rmoveto
          260 102 vlineto
          118 15 -52 -82 -73 -15 -53 -118 hvcurveto
          endchar
        </CharString>
        <CharString name="Racute">
          69 21 -21 37 callgsubr
          196 -20 hstem
          -47 callgsubr
          235 101 vstem
          373 hmoveto
          248 60 hlineto
          -64 20 -143 235 rlineto
          123 22 24 81 97 vvcurveto
          112 -32 93 -186 vhcurveto
          -310 -60 hlineto
          -100 callsubr
          230 88 vlineto
          136 -242 -76 -8 rlineto
          -148 325 rmoveto
          260 102 vlineto
          118 15 -52 -82 -73 -15 -53 -118 hvcurveto
          -90 406 -92 callgsubr
          endchar
        </CharString>
        <CharString name="Rcaron">
          69 21 -21 37 callgsubr
          196 -20 hstem
          -47 callgsubr
          235 101 vstem
          373 hmoveto
          248 60 hlineto
          -64 20 -143 235 rlineto
          123 22 24 81 97 vvcurveto
          112 -32 93 -186 vhcurveto
          -310 -60 hlineto
          -100 callsubr
          230 88 vlineto
          136 -242 -76 -8 rlineto
          -148 325 rmoveto
          260 102 vlineto
          118 15 -52 -82 -73 -15 -53 -118 hvcurveto
          154 531 -84 callsubr
        </CharString>
        <CharString name="Rcommaaccent">
          69 -22 callgsubr
          43 57 callgsubr
          56 99 80 101 vstem
          373 hmoveto
          248 60 hlineto
          -64 20 -143 235 rlineto
          123 22 24 81 97 vvcurveto
          112 -32 93 -186 vhcurveto
          -310 -60 hlineto
          -100 callsubr
          230 88 vlineto
          136 -242 -76 -8 rlineto
          -148 325 rmoveto
          260 102 vlineto
          118 15 -52 -82 -73 -15 -53 -118 hvcurveto
          -46 -519 -89 callsubr
        </CharString>
        <CharString name="Rdotbelow">
          69 -1 callsubr
          57 callgsubr
          40 128 67 101 vstem
          373 hmoveto
          248 60 hlineto
          -64 20 -143 235 rlineto
          123 22 24 81 97 vvcurveto
          112 -32 93 -186 vhcurveto
          -310 -60 hlineto
          -100 callsubr
          230 88 vlineto
          136 -242 -76 -8 rlineto
          -148 325 rmoveto
          260 102 vlineto
          118 15 -52 -82 -73 -15 -53 -118 hvcurveto
          2 -600 rmoveto
          -107 callgsubr
        </CharString>
        <CharString name="S">
          1 callsubr
          hstemhm
          57 100 249 88 -88 100 hintmask 10010101
          -85 callsubr
          hintmask 10001110
          -50 callgsubr
          hintmask 10010110
          -86 callgsubr
          hintmask 01010110
          -24 callsubr
          hintmask 00110110
          -33 callgsubr
          hintmask 10010110
          -46 17 25 -47 104 hhcurveto
          endchar
        </CharString>
        <CharString name="Sacute">
          -99 callgsubr
          -103 802 -92 callgsubr
          endchar
        </CharString>
        <CharString name="Scaron">
          -99 callgsubr
          148 927 -84 callsubr
        </CharString>
        <CharString name="Schwa">
          42 -11 71 235 78 131 226 hstemhm
          36 126 -105 124 273 106 hintmask 11101100
          303 730 rmoveto
          -194 -51 -112 -114 -1 hvcurveto
          124 hlineto
          hintmask 11110100
          75 1 16 81 107 hhcurveto
          122 26 -108 -179 1 hvcurveto
          -418 hlineto
          -217 27 -167 237 228 32 155 207 245 -45 134 -212 vhcurveto
          -670 vmoveto
          -106 -35 76 159 hvcurveto
          290 hlineto
          -161 -7 -37 -74 -105 hhcurveto
          endchar
        </CharString>
        <CharString name="Scircumflex">
          -99 callgsubr
          44 927 -92 callsubr
        </CharString>
        <CharString name="Sdotbelow">
          -12 -29 callsubr
          77 -55 callsubr
          hstemhm
          57 100 76 128 45 88 -88 100 hintmask 1100101101000000
          -85 callsubr
          hintmask 1100011110000000
          -50 callgsubr
          hintmask 1100101110000000
          -86 callgsubr
          hintmask 1010101110000000
          -24 callsubr
          hintmask 1001101110000000
          -33 callgsubr
          hintmask 1100101110000000
          -46 17 25 -47 104 hhcurveto
          -1 -204 rmoveto
          -107 callgsubr
        </CharString>
        <CharString name="T">
          54 21 51 callgsubr
          hintmask 11010000
          513 -43 callgsubr
          hintmask 10110000
          -61 callsubr
          endchar
        </CharString>
        <CharString name="Tbar">
          55 21 -21 345 63 87 225 -75 75 hstemhm
          261 99 hintmask 11101000
          514 -43 callgsubr
          hintmask 11011000
          13 150 rlineto
          141 -237 -139 -63 139 -265 hlineto
          -103 -20 rlineto
          -60 305 60 vlineto
          -103 20 rlineto
          265 136 63 -136 237 140 vlineto
          endchar
        </CharString>
        <CharString name="Tcaron">
          54 21 -21 495 225 -75 75 196 -20 hstemhm
          260 99 hintmask 11011000
          513 -43 callgsubr
          hintmask 10111000
          -61 callsubr
          hintmask 11011000
          -23 271 -84 callsubr
        </CharString>
        <CharString name="Tdotbelow">
          54 -1 callsubr
          495 225 -75 75 hstemhm
          245 128 -113 99 hintmask 11101000
          513 -43 callgsubr
          hintmask 11010100
          -61 callsubr
          hintmask 11101000
          -190 -860 rmoveto
          -107 callgsubr
        </CharString>
        <CharString name="Thorn">
          31 0 223 -75 75 280 75 -75 217 -48 callsubr
          239 102 hintmask 10011100
          338 660 rmoveto
          60 -305 -60 vlineto
          -68 callsubr
          -60 305 60 vlineto
          -113 20 rlineto
          hintmask 01101100
          68 93 vlineto
          192 56 97 125 110 -44 98 -204 hvcurveto
          -93 62 hlineto
          -417 vmoveto
          280 77 vlineto
          136 26 -49 -94 -87 -22 -50 -140 hvcurveto
          endchar
        </CharString>
        <CharString name="U">
          22 callgsubr
          hstem
          101 99 308 99 vstem
          -107 callsubr
          endchar
        </CharString>
        <CharString name="Uacute">
          22 callgsubr
          216 -20 hstem
          101 99 308 99 vstem
          -107 callsubr
          -294 151 -92 callgsubr
          endchar
        </CharString>
        <CharString name="Ubreve">
          13 callgsubr
          45 callgsubr
          101 99 -4 83 229 99 hintmask 11011010
          -107 callsubr
          -177 281 rmoveto
          hintmask 11101010
          21 callgsubr
          hintmask 11010110
          -75 callgsubr
        </CharString>
        <CharString name="Ucircumflex">
          22 callgsubr
          216 -20 hstem
          101 99 308 99 vstem
          -107 callsubr
          -190 276 -92 callsubr
        </CharString>
        <CharString name="Udieresis">
          13 callgsubr
          118 hstemhm
          101 99 -8 -8 callgsubr
          -9 99 hintmask 11110010
          -107 callsubr
          -356 151 rmoveto
          hintmask 11101100
          -105 callgsubr
        </CharString>
        <CharString name="Udotbelow">
          -29 callsubr
          77 59 callgsubr
          hstem
          101 99 89 128 91 99 vstem
          -107 callsubr
          -254 -855 rmoveto
          -107 callgsubr
        </CharString>
        <CharString name="Ugrave">
          13 callgsubr
          125 hstem
          101 99 308 99 vstem
          -107 callsubr
          -287 276 -62 callgsubr
        </CharString>
        <CharString name="Uhungarumlaut">
          13 callgsubr
          125 hstem
          101 99 308 99 vstem
          -107 callsubr
          -388 151 -92 callgsubr
          90 -125 -92 callgsubr
          endchar
        </CharString>
        <CharString name="Umacron">
          22 callgsubr
          121 63 hstem
          101 99 308 99 vstem
          -107 callsubr
          -390 181 -60 callgsubr
        </CharString>
        <CharString name="Uogonek">
          -210 69 131 71 659 -20 hstemhm
          101 99 71 55 callgsubr
          73 99 hintmask 11110110
          700 660 rmoveto
          9 callsubr
          93 -20 rlineto
          -323 vlineto
          -118 -15 -138 -140 -139 -14 134 124 15 callsubr
          -48 callgsubr
          -319 vlineto
          -156 24 -162 200 -13 vhcurveto
          -34 -36 -20 -28 -44 -56 callsubr
          hintmask 11111010
          -30 -13 18 21 19 10 36 30 37 hvcurveto
          195 16 25 159 154 vvcurveto
          321 vlineto
          endchar
        </CharString>
        <CharString name="Uring">
          13 callgsubr
          142 -48 48 hstemhm
          101 99 83 47 48 48 82 99 hintmask 11101111
          -107 callsubr
          -253 151 -40 callsubr
          hintmask 11011111
          -11 callgsubr
          vhcurveto
          endchar
        </CharString>
        <CharString name="Utilde">
          13 callgsubr
          -13 callgsubr
          101 99 308 99 hintmask 11101100
          -107 callsubr
          -127 284 -54 callsubr
          hintmask 11011100
          -97 callgsubr
          hintmask 11101100
          -85 callgsubr
        </CharString>
        <CharString name="V">
          109 -69 callgsubr
          hstem
          267 hmoveto
          140 hlineto
          191 640 84 25 callgsubr
          -273 -60 vlineto
          89 -20 -161 -563 -161 563 90 25 callgsubr
          -274 46 callsubr
          endchar
        </CharString>
        <CharString name="W">
          394 -69 callgsubr
          hstem
          -98 callgsubr
          endchar
        </CharString>
        <CharString name="Wacute">
          394 -69 callgsubr
          216 -20 hstem
          -98 callgsubr
          359 151 -92 callgsubr
          endchar
        </CharString>
        <CharString name="Wcircumflex">
          394 -69 callgsubr
          216 -20 hstem
          -98 callgsubr
          463 276 -92 callsubr
        </CharString>
        <CharString name="Wdieresis">
          394 -69 callgsubr
          91 118 hstem
          318 -8 callgsubr
          vstem
          -98 callgsubr
          297 151 rmoveto
          -105 callgsubr
        </CharString>
        <CharString name="Wgrave">
          394 -69 callgsubr
          91 125 hstem
          -98 callgsubr
          366 276 -62 callgsubr
        </CharString>
        <CharString name="X">
          127 -69 callgsubr
          hstem
          13 hmoveto
          286 60 hlineto
          -86 20 133 213 133 -213 -86 -20 rlineto
          -60 286 60 vlineto
          -84 20 -187 280 169 280 89 25 callgsubr
          -279 -60 vlineto
          86 -20 -127 -209 -127 209 86 25 callgsubr
          -279 -60 vlineto
          89 -20 168 -280 -186 -280 -84 -20 rlineto
          endchar
        </CharString>
        <CharString name="Y">
          100 -69 callgsubr
          hstem
          283 99 vstem
          -100 callgsubr
          endchar
        </CharString>
        <CharString name="Yacute">
          100 -69 callgsubr
          216 -20 hstem
          283 99 vstem
          -100 callgsubr
          210 151 -92 callgsubr
          endchar
        </CharString>
        <CharString name="Ycircumflex">
          100 -69 callgsubr
          216 -20 hstem
          283 99 vstem
          -100 callgsubr
          314 276 -92 callsubr
        </CharString>
        <CharString name="Ydieresis">
          100 -69 callgsubr
          91 118 hstemhm
          170 119 -6 99 -6 119 hintmask 11101000
          -100 callgsubr
          148 151 rmoveto
          hintmask 11110100
          -105 callgsubr
        </CharString>
        <CharString name="Ygrave">
          100 -69 callgsubr
          91 125 hstem
          283 99 vstem
          -100 callgsubr
          217 276 -62 callgsubr
        </CharString>
        <CharString name="Ytilde">
          100 -69 callgsubr
          91 -13 callgsubr
          283 99 hintmask 11101000
          -100 callgsubr
          377 284 -54 callsubr
          hintmask 11011000
          -97 callgsubr
          hintmask 11101000
          -85 callgsubr
        </CharString>
        <CharString name="Z">
          14 -39 callsubr
          hstemhm
          hintmask 10100000
          49 callsubr
          hintmask 10010000
          -69 callsubr
          hintmask 01100000
          244 -79 vlineto
          hintmask 10100000
          -68 callgsubr
          endchar
        </CharString>
        <CharString name="Zacute">
          -59 callsubr
          192 71 -92 callgsubr
          endchar
        </CharString>
        <CharString name="Zcaron">
          -59 callsubr
          401 196 -84 callsubr
        </CharString>
        <CharString name="Zdotaccent">
          14 -39 callsubr
          71 127 hstemhm
          226 128 hintmask 10101100
          49 callsubr
          hintmask 10011100
          -69 callsubr
          hintmask 01101100
          244 -79 vlineto
          hintmask 10101100
          -68 callgsubr
          234 71 rmoveto
          -107 callgsubr
        </CharString>
        <CharString name="Zdotbelow">
          14 -29 callsubr
          88 -30 callsubr
          hstemhm
          219 128 hintmask 11010100
          49 callsubr
          hintmask 11001100
          -69 callsubr
          hintmask 10110100
          244 -79 vlineto
          hintmask 11010100
          -68 callgsubr
          227 -935 rmoveto
          -107 callgsubr
        </CharString>
        <CharString name="a">
          -80 callsubr
          12 callsubr
          95 hintmask 0111001010000000
          -65 callgsubr
          hintmask 1011000110000000
          -94 callgsubr
          hintmask 1010010110000000
          -22 callsubr
          hintmask 1011000110000000
          3 callsubr
          hintmask 0110101010000000
          -99 callsubr
          hintmask 1011001010000000
          -95 callgsubr
          endchar
        </CharString>
        <CharString name="aacute">
          -80 callsubr
          85 155 -103 callsubr
          4 505 -88 callgsubr
          endchar
        </CharString>
        <CharString name="abreve">
          -80 callsubr
          85 56 -56 130 -8 callsubr
          -50 78 149 69 -69 95 hintmask 0111001010001000
          -65 callgsubr
          hintmask 1011001001001000
          -94 callgsubr
          hintmask 1010011001010000
          -22 callsubr
          hintmask 1011001001010000
          3 callsubr
          hintmask 0110101010010000
          -99 callsubr
          hintmask 1011000110010000
          -95 callgsubr
          100 635 rmoveto
          hintmask 1011001010010000
          21 callsubr
          hintmask 1011000100110000
          -75 callsubr
        </CharString>
        <CharString name="acircumflex">
          -80 callsubr
          230 -20 -103 callsubr
          89 650 -94 callsubr
        </CharString>
        <CharString name="acute">
          -367 565 155 hstem
          20 565 -88 callgsubr
          endchar
        </CharString>
        <CharString name="acute.cap">
          -307 812 -21 125 -20 hstem
          20 41 callgsubr
          endchar
        </CharString>
        <CharString name="adieresis">
          -80 callsubr
          128 118 -8 callsubr
          -70 -8 callgsubr
          -78 95 hintmask 0111001100010000
          -65 callgsubr
          hintmask 1011001010010000
          -94 callgsubr
          hintmask 1010011010100000
          -22 callsubr
          hintmask 1011001010100000
          3 callsubr
          hintmask 0110101100010000
          -99 callsubr
          hintmask 1011001100010000
          -95 callgsubr
          -80 548 rmoveto
          hintmask 1011001001100000
          -105 callgsubr
        </CharString>
        <CharString name="ae">
          189 -11 63 -63 159 79 58 52 -58 callsubr
          12 callsubr
          102 195 96 hintmask 0111001011000000
          39 callsubr
          hintmask 1011000111000000
          -31 callgsubr
          hintmask 1010010111000000
          -22 callsubr
          hintmask 1011000111000000
          3 callsubr
          hintmask 0110101011000000
          -26 callgsubr
          hintmask 1011001011000000
          -32 callsubr
          endchar
        </CharString>
        <CharString name="aeacute">
          189 -11 63 -63 159 79 58 52 -58 callsubr
          85 155 12 callsubr
          102 195 96 hintmask 0111001101100000
          39 callsubr
          hintmask 1011001011100000
          -31 callgsubr
          hintmask 1010011011100000
          -22 callsubr
          hintmask 1011001011100000
          3 callsubr
          hintmask 0110101101100000
          -26 callgsubr
          hintmask 1011001101100000
          -32 callsubr
          -179 119 -88 callgsubr
          endchar
        </CharString>
        <CharString name="agrave">
          -80 callsubr
          85 155 -103 callsubr
          16 660 -52 callsubr
        </CharString>
        <CharString name="amacron">
          -80 callsubr
          135 63 -103 callsubr
          -116 555 -60 callgsubr
        </CharString>
        <CharString name="ampersand">
          113 -12 83 -50 -21 648 82 hstemhm
          49 101 -52 102 163 97 hintmask 10101100
          460 570 rmoveto
          61 -31 99 -151 -154 -26 -103 -59 -69 35 -50 52 -62 vhcurveto
          hintmask 10110100
          -71 -46 -65 -55 -97 vvcurveto
          -92 58 -109 161 85 57 30 52 43 vhcurveto
          hintmask 01110100
          59 -70 rlineto
          157 60 hlineto
          -102 20 -62 76 24 52 20 60 21 66 rlinecurve
          72 25 callgsubr
          -146 vlineto
          -6 -41 -14 -75 -29 -70 -125 154 rcurveline
          71 47 67 52 89 vvcurveto
          hintmask 10110100
          -193 -499 rmoveto
          -63 -54 37 75 62 38 43 49 37 hvcurveto
          158 -187 rlineto
          -40 -32 -42 -27 -54 hhcurveto
          hintmask 10101100
          -67 496 rmoveto
          43 24 38 56 56 27 -37 -45 -56 -42 -37 -52 -34 vhcurveto
          -36 36 -33 40 52 vvcurveto
          endchar
        </CharString>
        <CharString name="aogonek">
          -65 -210 69 131 70 -39 -21 234 -42 callsubr
          -8 callsubr
          133 55 callgsubr
          -120 95 hintmask 1101100100010000
          -65 callgsubr
          hintmask 1011100100100000
          20 -72 rlineto
          -64 callsubr
          vhcurveto
          hintmask 1011100101000000
          -20 callgsubr
          hvcurveto
          90 hlineto
          hintmask 1101100010010000
          60 vlineto
          -49 callsubr
          295 vlineto
          94 -50 41 -85 -60 -46 -21 -52 -27 vhcurveto
          -4 hlineto
          hintmask 1101001011000000
          -22 callsubr
          hintmask 1101100011000000
          3 callsubr
          hintmask 1101010100010000
          -99 callsubr
          -95 callgsubr
          endchar
        </CharString>
        <CharString name="apostrophe">
          -376 11 callsubr
          52 74 vstem
          60 500 rmoveto
          59 hlineto
          15 220 rlineto
          -89 hlineto
          endchar
        </CharString>
        <CharString name="approxequal">
          -34 168 70 -4 70 32 -13 callgsubr
          57 61 301 60 hintmask 10101100
          419 469 rmoveto
          -39 -26 -24 -34 vhcurveto
          hintmask 10011100
          -12 callsubr
          hintmask 10101100
          28 callsubr
          -60 -168 rmoveto
          -39 -26 -24 -34 vhcurveto
          hintmask 01101100
          -12 callsubr
          hintmask 10101100
          28 callsubr
          endchar
        </CharString>
        <CharString name="aring">
          -80 callsubr
          79 48 70 49 -8 callsubr
          24 49 70 49 -15 95 hintmask 0111001110101000
          -65 callgsubr
          hintmask 1011001101101000
          -94 callgsubr
          hintmask 1010011101110000
          -22 callsubr
          hintmask 1011001101110000
          3 callsubr
          hintmask 0110101110101000
          -99 callsubr
          hintmask 1011001110101000
          -95 callgsubr
          39 499 rmoveto
          hintmask 1011001110110000
          -74 callgsubr
          endchar
        </CharString>
        <CharString name="aringacute">
          -80 callsubr
          79 48 70 49 38 53 callgsubr
          31 49 70 49 -22 95 hintmask 0111001111010100
          -65 callgsubr
          hintmask 1011001110110100
          -94 callgsubr
          hintmask 1010011110111000
          -22 callsubr
          hintmask 1011001110111000
          3 callsubr
          hintmask 0110101111010100
          -99 callsubr
          hintmask 1011001111010100
          -95 callgsubr
          46 499 rmoveto
          hintmask 1011001111011000
          -74 callgsubr
          -34 157 -88 callgsubr
          endchar
        </CharString>
        <CharString name="asciicircum">
          -143 201 -21 205 -20 hstem
          273 385 rmoveto
          -114 hlineto
          -120 -205 rlineto
          78 hlineto
          97 142 91 -142 rlineto
          78 hlineto
          endchar
        </CharString>
        <CharString name="asciitilde">
          -37 182 -13 callgsubr
          hintmask 10000000
          415 315 rmoveto
          -39 -26 -24 -34 vhcurveto
          hintmask 01000000
          -12 callsubr
          hintmask 10000000
          28 callsubr
          endchar
        </CharString>
        <CharString name="asterisk">
          -270 11 callsubr
          34 634 rmoveto
          90 -24 -90 -23 37 -63 60 63 -20 -87 rlineto
          73 hlineto
          -20 87 60 -63 37 63 -91 23 91 24 -36 63 -61 -64 20 87 rlineto
          -73 hlineto
          20 -87 -61 64 rlineto
          endchar
        </CharString>
        <CharString name="at">
          241 -114 56 92 47 303 58 107 60 hstem
          39 71 101 82 410 71 vstem
          354 81 rmoveto
          -48 -13 33 69 57 9 144 95 49 23 -38 -52 -2 0 -5 -1 -8 hvcurveto
          -11 -90 rlineto
          -58 -7 -36 -50 -60 hhcurveto
          200 -47 rmoveto
          172 48 139 128 222 -143 86 -181 -258 -153 -178 -222 -213 142 -110 159 43 40 8 16 41 hvcurveto
          -8 43 rlineto
          -7 -35 -33 -4 -31 hhcurveto
          -157 -90 100 168 190 115 149 221 114 143 -37 -213 -119 -45 -97 -87 hvcurveto
          -51 hlineto
          35 287 32 16 6 48 rlineto
          -90 hlineto
          -24 -63 rlineto
          50 -8 -38 21 -51 hhcurveto
          -145 -26 -171 -94 -84 21 -68 95 54 46 22 50 19 hvcurveto
          8 -63 rlineto
          endchar
        </CharString>
        <CharString name="atilde">
          -80 callsubr
          80 70 -4 70 5 callsubr
          68 -68 85 177 95 hintmask 0111001010010000
          -65 callgsubr
          hintmask 1011001000110000
          -94 callgsubr
          hintmask 1010011001010000
          -22 callsubr
          hintmask 1011001000110000
          3 callsubr
          hintmask 0110101010010000
          -99 callsubr
          hintmask 1011001001010000
          -95 callgsubr
          158 633 -54 callsubr
          hintmask 1011000101010000
          -97 callgsubr
          hintmask 1011001010010000
          -85 callgsubr
        </CharString>
        <CharString name="b">
          42 callsubr
          245 -20 hstemhm
          12 171 -95 95 206 102 hintmask 10111010
          183 72 rmoveto
          1 callgsubr
          334 16 callgsubr
          hintmask 10110110
          7 callsubr
          hintmask 01111010
          -60 150 vlineto
          132 440 rmoveto
          76 18 -91 -100 hvcurveto
          hintmask 10111010
          -100 -18 -89 -76 -74 -38 65 68 vhcurveto
          58 callgsubr
        </CharString>
        <CharString name="backslash">
          -250 -69 callgsubr
          hstem
          291 hmoveto
          -180 720 rlineto
          -87 hlineto
          180 -720 rlineto
          endchar
        </CharString>
        <CharString name="bar">
          -330 -6 callgsubr
          970 -20 hstem
          75 85 vstem
          160 -215 rmoveto
          970 -85 -970 vlineto
          endchar
        </CharString>
        <CharString name="braceleft">
          47 callsubr
          94 95 -95 212 hintmask 11101000
          306 -215 rmoveto
          70 -37 vlineto
          hintmask 11110000
          -60 -20 38 112 hvcurveto
          70 vlineto
          87 -13 62 -71 36 vhcurveto
          71 35 13 63 87 vvcurveto
          55 vlineto
          112 20 38 60 vhcurveto
          hintmask 11101000
          37 70 -37 hlineto
          -140 -35 -76 -144 hvcurveto
          -55 vlineto
          -109 -20 -41 -60 vhcurveto
          -70 vlineto
          60 20 -38 -112 hvcurveto
          -70 vlineto
          -144 35 -76 140 vhcurveto
          endchar
        </CharString>
        <CharString name="braceright">
          47 callsubr
          20 212 -95 95 hintmask 11110000
          57 -215 rmoveto
          140 35 76 144 hvcurveto
          70 vlineto
          112 20 38 60 vhcurveto
          70 vlineto
          -60 -20 41 109 hvcurveto
          55 vlineto
          144 -35 76 -140 vhcurveto
          -37 -70 37 hlineto
          hintmask 11101000
          60 20 -38 -112 hvcurveto
          -55 vlineto
          -87 13 -63 71 -35 vhcurveto
          -71 -36 -13 -62 -87 vvcurveto
          -70 vlineto
          -112 -20 -38 -60 vhcurveto
          hintmask 11110000
          -37 -70 hlineto
          endchar
        </CharString>
        <CharString name="bracketleft">
          -248 -215 70 795 70 hstemhm
          75 95 -95 222 hintmask 11010000
          75 -215 rmoveto
          222 70 hlineto
          hintmask 11100000
          -127 795 hlineto
          hintmask 11010000
          127 70 -222 hlineto
          endchar
        </CharString>
        <CharString name="bracketright">
          -248 -215 70 795 70 hstemhm
          20 222 -95 95 hintmask 11100000
          242 -3 callsubr
          -222 -70 hlineto
          hintmask 11010000
          127 -795 hlineto
          hintmask 11100000
          -127 -70 222 hlineto
          endchar
        </CharString>
        <CharString name="breve">
          -169 565 44 callsubr
          50 78 hintmask 01100000
          269 695 rmoveto
          hintmask 10100000
          21 callsubr
          hintmask 01100000
          -75 callsubr
        </CharString>
        <CharString name="breve.cap">
          -209 791 45 callgsubr
          20 83 hintmask 01100000
          254 921 rmoveto
          hintmask 10100000
          21 callgsubr
          hintmask 01100000
          -75 callgsubr
        </CharString>
        <CharString name="brokenbar">
          -328 -6 callgsubr
          970 -20 hstem
          76 85 vstem
          161 345 rmoveto
          410 -85 -410 vlineto
          85 -560 rmoveto
          410 -85 -410 vlineto
          endchar
        </CharString>
        <CharString name="bullet">
          -239 148 204 hstem
          67 192 vstem
          163 148 rmoveto
          55 41 43 59 61 -41 41 -55 -55 -41 -41 -61 -59 41 -43 55 hvcurveto
          endchar
        </CharString>
        <CharString name="c">
          -103 -10 -44 callsubr
          23 callsubr
          187 85 hintmask 01100110
          242 -10 rmoveto
          135 41 85 107 hvcurveto
          -87 hlineto
          hintmask 10010110
          -49 callgsubr
          hintmask 10100110
          70 20 -54 -49 hvcurveto
          85 hlineto
          hintmask 10001110
          163 -55 -45 callsubr
          hintmask 01100110
          53 -11 -44 20 -58 hhcurveto
          -133 -53 -106 -154 -154 43 -106 158 hvcurveto
          endchar
        </CharString>
        <CharString name="cacute">
          -103 -10 -44 callsubr
          85 155 -88 callsubr
          -56 575 -88 callgsubr
          endchar
        </CharString>
        <CharString name="caron">
          -181 586 -21 145 -20 hstem
          364 710 -86 callsubr
        </CharString>
        <CharString name="caron.alt">
          -358 581 -21 60 106 hstem
          50 107 vstem
          117 560 -65 callsubr
        </CharString>
        <CharString name="caron.cap">
          -192 812 -21 125 -20 hstem
          353 916 -84 callsubr
        </CharString>
        <CharString name="ccaron">
          -103 -10 -44 callsubr
          230 -20 -88 callsubr
          155 720 -86 callsubr
        </CharString>
        <CharString name="ccedilla">
          -103 22 callsubr
          37 -44 callsubr
          23 callsubr
          114 88 -15 85 hintmask 1101100110000000
          150 -66 callsubr
          18 42 rlineto
          128 4 40 83 105 vvcurveto
          -87 hlineto
          hintmask 1110010110000000
          -49 callgsubr
          hintmask 1110100101000000
          70 20 -54 -49 hvcurveto
          85 hlineto
          hintmask 1110001101000000
          163 -55 -45 callsubr
          hintmask 1110100110000000
          53 -11 -44 20 -58 hhcurveto
          -133 -53 -106 -154 -140 35 -100 124 -17 hvcurveto
          -43 -104 rlineto
          -66 callgsubr
        </CharString>
        <CharString name="ccircumflex">
          -103 -10 -44 callsubr
          230 -20 -88 callsubr
          74 720 -94 callsubr
        </CharString>
        <CharString name="cdotaccent">
          -103 -10 -44 callsubr
          119 127 23 callsubr
          24 128 35 85 hintmask 0110011110000000
          242 -10 rmoveto
          135 41 85 107 hvcurveto
          -87 hlineto
          hintmask 1001011110000000
          -49 callgsubr
          hintmask 1010011110000000
          70 20 -54 -49 hvcurveto
          85 hlineto
          hintmask 1000111110000000
          163 -55 -45 callsubr
          hintmask 0110011110000000
          53 -11 -44 20 -58 hhcurveto
          -133 -53 -106 -154 -154 43 -106 158 hvcurveto
          -7 609 rmoveto
          -107 callgsubr
        </CharString>
        <CharString name="cedilla">
          -306 22 callsubr
          76 -20 hstem
          141 88 vstem
          30 -66 callsubr
          35 81 rlineto
          -51 hlineto
          -59 -140 rlineto
          -66 callgsubr
        </CharString>
        <CharString name="cent">
          -101 -91 -21 103 191 155 172 -9 -20 140 -20 23 callsubr
          66 50 68 88 hintmask 11101111
          263 -112 rmoveto
          103 vlineto
          118 8 37 82 101 vvcurveto
          -87 hlineto
          -60 -18 -59 -50 -11 vhcurveto
          386 vlineto
          54 -9 17 -48 -44 vvcurveto
          85 hlineto
          hintmask 11011111
          163 -55 -45 callsubr
          -9 41 -28 21 -40 8 rrcurveto
          113 -50 vlineto
          hintmask 11101111
          -111 vlineto
          -123 -7 -49 -104 -148 vvcurveto
          -144 37 -102 135 -12 vhcurveto
          -104 vlineto
          -66 362 rmoveto
          87 4 80 62 19 vhcurveto
          -382 vlineto
          -62 21 -4 87 88 vvcurveto
          endchar
        </CharString>
        <CharString name="circumflex">
          -181 586 -21 145 -20 hstem
          254 710 -94 callsubr
        </CharString>
        <CharString name="circumflex.cap">
          -192 812 -21 125 -20 hstem
          248 916 -92 callsubr
        </CharString>
        <CharString name="colon">
          -344 0 102 216 102 hstem
          56 109 vstem
          56 53 callsubr
          216 vmoveto
          -46 callsubr
          endchar
        </CharString>
        <CharString name="comma">
          -350 -90 -21 132 -21 101 -20 hstem
          53 109 vstem
          53 27 callsubr
          endchar
        </CharString>
        <CharString name="commaaccent">
          -406 -22 callgsubr
          -20 hstem
          30 99 vstem
          30 -134 -89 callsubr
        </CharString>
        <CharString name="copyright">
          252 -111 74 68 51 -51 163 130 145 -58 58 87 74 hstemhm
          38 74 124 87 159 72 151 74 hintmask 1011011111000000
          -61 callgsubr
          288 -228 rmoveto
          118 35 73 90 hvcurveto
          -74 hlineto
          hintmask 1100111111000000
          -56 -17 -56 -58 -73 -8 81 97 73 6 78 78 vhcurveto
          hintmask 1011011111000000
          59 16 -46 -41 hvcurveto
          72 137 -47 hlineto
          -16 -53 rlineto
          -4 hlineto
          47 -10 -38 14 -49 hhcurveto
          -123 -31 -89 -124 -136 33 -89 131 hvcurveto
          endchar
        </CharString>
        <CharString name="currency">
          -60 51 -21 39 61 237 63 38 -20 hstem
          66 96 185 95 vstem
          253 69 rmoveto
          40 34 8 14 27 hvcurveto
          62 -61 45 45 -57 57 rlineto
          25 31 13 41 45 vvcurveto
          44 -13 42 -25 31 vhcurveto
          57 57 -45 45 -61 -61 rlineto
          14 -28 -34 9 -40 hhcurveto
          -41 -35 -9 -15 -27 hvcurveto
          -62 62 -45 -45 58 -59 rlineto
          -24 -31 -11 -40 -44 vvcurveto
          -44 12 -40 24 -31 vhcurveto
          -59 -59 45 -45 62 62 rlineto
          -15 28 34 -8 41 hhcurveto
          2 61 rmoveto
          -66 -27 52 63 67 27 55 66 68 24 -55 -67 -63 -24 -52 -68 hvcurveto
          endchar
        </CharString>
        <CharString name="d">
          42 callsubr
          245 2 callgsubr
          hintmask 10111010
          349 421 rmoveto
          -87 callgsubr
          hintmask 01111100
          20 -72 rlineto
          150 hlineto
          hintmask 10111100
          -25 callgsubr
          hintmask 10111010
          86 -20 rlineto
          -112 -235 5 callgsubr
        </CharString>
        <CharString name="dagger">
          -209 -6 callgsubr
          678 73 219 -20 hstem
          135 85 vstem
          21 463 rmoveto
          114 -678 85 678 115 73 -115 219 -85 -219 -114 hlineto
          endchar
        </CharString>
        <CharString name="daggerdbl">
          -215 -6 callgsubr
          220 73 384 73 220 -20 hstem
          132 85 vstem
          33 462 rmoveto
          99 -384 -99 -73 99 -220 85 220 100 73 -100 384 100 73 -100 220 -85 -220 -99 hlineto
          endchar
        </CharString>
        <CharString name="dcaron">
          42 callsubr
          110 106 29 2 callgsubr
          63 107 hintmask 1011110110000000
          349 421 rmoveto
          -87 callgsubr
          hintmask 0111111010000000
          20 -72 rlineto
          150 hlineto
          hintmask 1011111010000000
          -25 callgsubr
          hintmask 1011110110000000
          86 -20 rlineto
          -112 -235 -81 callsubr
          337 120 -65 callsubr
        </CharString>
        <CharString name="dcroat">
          42 callsubr
          82 73 90 -20 hstemhm
          41 102 206 95 hintmask 10111110
          205 592 rmoveto
          144 -171 hlineto
          -87 callgsubr
          hintmask 01111110
          20 -72 rlineto
          150 hlineto
          hintmask 10111110
          60 vlineto
          -49 callsubr
          512 75 73 -75 90 -95 -90 -144 vlineto
          32 -225 5 callgsubr
        </CharString>
        <CharString name="ddotbelow">
          -33 -29 callsubr
          78 70 -39 -21 440 70 245 -20 hstemhm
          41 102 74 128 -82 181 -95 95 hintmask 1101111010000000
          349 421 rmoveto
          -87 callgsubr
          hintmask 1011111010000000
          20 -72 rlineto
          150 hlineto
          hintmask 1101110100000000
          -25 callgsubr
          hintmask 1101111010000000
          86 -20 rlineto
          -112 -235 -81 callsubr
          44 -655 rmoveto
          -107 callgsubr
        </CharString>
        <CharString name="degree">
          -265 499 48 128 50 hstem
          36 73 82 73 vstem
          149 499 rmoveto
          100 15 71 42 42 -15 71 -100 -98 -15 -71 -42 -42 15 -71 98 hvcurveto
          1 48 rmoveto
          -37 -4 37 25 27 4 39 37 39 2 -39 -27 -25 -2 -37 -39 hvcurveto
          endchar
        </CharString>
        <CharString name="dieresis">
          -102 608 118 hstem
          69 -8 callgsubr
          vstem
          128 608 rmoveto
          -105 callgsubr
        </CharString>
        <CharString name="dieresis.cap">
          -200 791 118 hstem
          20 -8 callgsubr
          vstem
          79 791 rmoveto
          -105 callgsubr
        </CharString>
        <CharString name="divide">
          -165 40 102 72 73 71 102 hstem
          150 109 vstem
          150 40 rmoveto
          -46 callsubr
          216 vmoveto
          -46 callsubr
          -107 -246 17 callsubr
        </CharString>
        <CharString name="dollar">
          -29 -91 -21 101 82 -67 218 427 82 -11 -20 145 -20 hstemhm
          42 101 100 50 87 99 -76 100 hintmask 1101011101000000
          293 -112 rmoveto
          101 vlineto
          133 77 75 123 148 -111 43 -99 37 hvcurveto
          226 vlineto
          hintmask 1100111110000000
          62 -24 25 -75 -67 vvcurveto
          -50 callgsubr
          -9 54 -32 29 -41 13 rrcurveto
          122 -50 vlineto
          hintmask 1011011101000000
          -114 vlineto
          -116 -85 -61 -126 -140 104 -39 97 -36 hvcurveto
          -255 vlineto
          -60 12 -40 45 91 vvcurveto
          -100 -218 80 hlineto
          20 78 rlineto
          6 hlineto
          13 -37 20 -38 61 -13 rrcurveto
          -106 vlineto
          160 292 rmoveto
          hintmask 1101011101000000
          -57 -31 -47 -79 -5 vhcurveto
          238 vlineto
          61 -26 49 -33 -70 vvcurveto
          -261 368 rmoveto
          60 45 38 56 3 vhcurveto
          -215 vlineto
          -58 25 -43 29 60 vvcurveto
          endchar
        </CharString>
        <CharString name="dotaccent">
          -302 599 127 hstem
          67 128 vstem
          131 599 rmoveto
          -107 callgsubr
        </CharString>
        <CharString name="dotaccent.cap">
          -397 791 127 hstem
          20 128 vstem
          84 791 rmoveto
          -107 callgsubr
        </CharString>
        <CharString name="dotbelow">
          -377 -29 callsubr
          hstem
          30 128 vstem
          94 -215 rmoveto
          -107 callgsubr
        </CharString>
        <CharString name="dotlessi">
          -19 callsubr
          51 callsubr
          hintmask 11010000
          14 callsubr
          hintmask 11100000
          -64 callgsubr
          hintmask 11001000
          -35 callgsubr
          hintmask 11010000
          -73 -20 rlineto
          endchar
        </CharString>
        <CharString name="dotlessj">
          -321 -225 76 649 31 callsubr
          hintmask 11100000
          -97 callsubr
          endchar
        </CharString>
        <CharString name="e">
          -93 -10 -43 callsubr
          23 callsubr
          190 93 vstemhm
          -78 callsubr
          hintmask 11111000
          -106 callgsubr
          endchar
        </CharString>
        <CharString name="eacute">
          -93 -10 -43 callsubr
          55 155 23 callsubr
          190 93 vstemhm
          -78 callsubr
          hintmask 11111100
          -106 callgsubr
          -36 115 -88 callgsubr
          endchar
        </CharString>
        <CharString name="ebreve">
          -93 -10 60 -60 -43 callsubr
          55 44 callsubr
          41 106 -53 78 165 93 hintmask 0111101010000000
          -78 callsubr
          hintmask 0111011010000000
          -106 callgsubr
          68 245 rmoveto
          hintmask 1011101010000000
          21 callsubr
          hintmask 1011010110000000
          -75 callsubr
        </CharString>
        <CharString name="ecaron">
          -93 -10 -43 callsubr
          200 -20 23 callsubr
          190 93 vstemhm
          -78 callsubr
          hintmask 11111100
          -106 callgsubr
          172 260 -86 callsubr
        </CharString>
        <CharString name="ecircumflex">
          -93 -10 -43 callsubr
          200 -20 23 callsubr
          190 93 vstemhm
          -78 callsubr
          hintmask 11111100
          -106 callgsubr
          55 260 -94 callsubr
        </CharString>
        <CharString name="edieresis">
          -93 -10 60 -60 -43 callsubr
          98 118 23 callsubr
          -64 -8 callgsubr
          -71 93 hintmask 0111110100000000
          -78 callsubr
          hintmask 0111110010000000
          -106 callgsubr
          -103 158 rmoveto
          hintmask 1011101100000000
          -105 callgsubr
        </CharString>
        <CharString name="edotaccent">
          -93 -10 -43 callsubr
          89 127 23 callsubr
          41 128 21 93 vstemhm
          -78 callsubr
          hintmask 11111110
          -106 callgsubr
          7 149 rmoveto
          -107 callgsubr
        </CharString>
        <CharString name="edotbelow">
          -93 -29 callsubr
          78 -43 callsubr
          23 callsubr
          27 128 35 93 vstemhm
          -78 callsubr
          hintmask 11111110
          -106 callgsubr
          -7 -665 rmoveto
          -107 callgsubr
        </CharString>
        <CharString name="egrave">
          -93 -10 -43 callsubr
          55 155 23 callsubr
          190 93 vstemhm
          -78 callsubr
          hintmask 11111100
          -106 callgsubr
          -1 270 -52 callsubr
        </CharString>
        <CharString name="eight">
          -34 -11 72 278 72 248 72 hstemhm
          43 104 -89 89 -89 104 208 104 -89 89 -89 104 hintmask 1111000010000000
          263 -11 rmoveto
          166 60 101 104 90 -43 64 -97 27 hvcurveto
          hintmask 1110100100000000
          86 25 39 64 90 vvcurveto
          86 -56 91 -157 -154 -49 -89 -86 -90 36 -61 83 -29 vhcurveto
          hintmask 1111000100000000
          -94 -26 -40 -64 -90 vvcurveto
          -104 52 -103 168 vhcurveto
          3 350 rmoveto
          88 31 -64 -79 -73 -31 -62 -88 -90 -29 66 71 74 27 67 92 hvcurveto
          72 vmoveto
          hintmask 1110011000000000
          -80 -24 57 60 70 26 61 78 76 28 -58 -75 -63 -27 -52 -77 hvcurveto
          endchar
        </CharString>
        <CharString name="eightinferior">
          -303 -5 40 callgsubr
          -67 callsubr
          endchar
        </CharString>
        <CharString name="eightsuperior">
          -303 439 40 callgsubr
          439 -104 callgsubr
          endchar
        </CharString>
        <CharString name="ellipsis">
          56 0 102 hstem
          53 109 94 109 94 109 cntrmask 01110000
          53 53 callsubr
          203 -102 rmoveto
          -46 callsubr
          203 -102 rmoveto
          -46 callsubr
          endchar
        </CharString>
        <CharString name="emacron">
          -93 -10 -43 callsubr
          105 63 23 callsubr
          190 93 vstemhm
          -78 callsubr
          hintmask 11111100
          -106 callgsubr
          -139 165 -60 callgsubr
        </CharString>
        <CharString name="emdash">
          185 20 callgsubr
          638 73 -638 hlineto
          endchar
        </CharString>
        <CharString name="endash">
          -57 20 callgsubr
          396 73 -396 hlineto
          endchar
        </CharString>
        <CharString name="eng">
          -10 -225 79 167 -21 440 -16 callsubr
          36 callsubr
          204 96 hintmask 11100110
          222 29 callgsubr
          316 vlineto
          99 -21 105 -135 -73 -58 -30 -60 -13 vhcurveto
          hintmask 11011010
          -23 callgsubr
          hintmask 11101010
          -60 vlineto
          hintmask 11100110
          -63 callsubr
          hintmask 11101010
          -2 callgsubr
          hintmask 11100110
          -49 callsubr
          218 vlineto
          64 35 78 78 81 10 -62 -71 vhcurveto
          -321 vlineto
          -69 -3 58 callsubr
        </CharString>
        <CharString name="eogonek">
          -93 -210 69 132 59 -59 157 80 60 162 60 23 callsubr
          3 55 callgsubr
          23 93 hintmask 1011111010000000
          429 148 rmoveto
          -91 hlineto
          hintmask 1101110110000000
          -42 -2 -9 -56 -78 hhcurveto
          -92 -10 79 99 hvcurveto
          282 hlineto
          1 18 0 17 16 vvcurveto
          158 -44 73 -135 -161 -49 -99 -161 -145 40 -96 126 -16 vhcurveto
          -36 -37 -21 -29 -45 -56 callsubr
          hintmask 1011111010000000
          -30 -13 18 21 19 10 37 30 37 hvcurveto
          121 6 34 76 8 75 rrcurveto
          -184 302 rmoveto
          66 26 -42 -120 hvcurveto
          -190 hlineto
          89 2 14 73 82 hhcurveto
          endchar
        </CharString>
        <CharString name="equal">
          -165 117 73 120 73 hstem
          58 310 rmoveto
          284 73 -284 hlineto
          -266 vmoveto
          284 73 -284 hlineto
          endchar
        </CharString>
        <CharString name="eth">
          -39 -11 81 287 73 290 -20 hstemhm
          27 102 246 108 -92 92 hintmask 11110100
          232 503 rmoveto
          134 29 rlineto
          18 -49 7 -60 -77 vvcurveto
          -4 hlineto
          50 -17 -54 34 -80 hhcurveto
          -148 -61 -115 -107 -98 52 -121 169 210 25 188 153 95 -10 71 -21 55 hvcurveto
          90 20 -15 69 -110 -25 -32 43 -43 32 -56 30 rlinecurve
          -145 hlineto
          91 -36 61 -37 38 -51 -114 -25 rcurveline
          32 -501 rmoveto
          -107 -13 89 60 38 5 100 115 hvcurveto
          hintmask 11111000
          116 10 -103 -41 -57 -20 -86 -106 hvcurveto
          endchar
        </CharString>
        <CharString name="etilde">
          -93 -10 60 -60 -43 callsubr
          50 -13 callgsubr
          41 106 190 93 hintmask 01111011
          -78 callsubr
          -106 callgsubr
          128 243 -54 callsubr
          hintmask 10110111
          -97 callgsubr
          hintmask 10111011
          -85 callgsubr
        </CharString>
        <CharString name="exclam">
          -308 0 102 618 -20 hstem
          74 101 vstem
          74 53 callsubr
          16 70 rmoveto
          77 hlineto
          16 303 rlineto
          245 -109 -245 vlineto
          endchar
        </CharString>
        <CharString name="exclamdown">
          -322 -6 callgsubr
          613 102 hstem
          67 109 vstem
          67 398 rmoveto
          -46 callsubr
          -470 vmoveto
          -245 109 245 vlineto
          -16 298 rlineto
          -77 hlineto
          endchar
        </CharString>
        <CharString name="f">
          -227 44 callgsubr
          188 76 hstem
          106 95 vstem
          31 427 rmoveto
          75 -347 hlineto
          -6 callsubr
          -60 274 -12 callgsubr
          -115 -37 -76 -134 hvcurveto
          -54 -75 vlineto
          endchar
        </CharString>
        <CharString name="f_f">
          48 44 callgsubr
          167 76 -55 76 hstemhm
          106 95 180 95 hintmask 11011100
          31 427 rmoveto
          75 -347 hlineto
          -6 callsubr
          -60 254 60 vlineto
          -84 20 rlineto
          347 180 -347 vlineto
          -65 -20 rlineto
          -60 264 -12 callgsubr
          -61 -39 -21 -40 -23 hvcurveto
          hintmask 11101100
          21 -29 -47 19 -59 hhcurveto
          -114 -55 -73 -125 hvcurveto
          -45 -75 vlineto
          350 hmoveto
          -180 45 hlineto
          97 38 25 54 30 31 -8 -22 33 vhcurveto
          -4 -24 -2 -28 -31 vvcurveto
          endchar
        </CharString>
        <CharString name="f_f_i">
          274 44 callgsubr
          105 159 -97 76 -44 65 34 callsubr
          95 180 83 -83 95 hintmask 1110010110000000
          31 427 rmoveto
          25 callsubr
          hintmask 1110001110000000
          56 callgsubr
          -65 -20 rlineto
          -60 234 60 vlineto
          56 callgsubr
          -63 -20 rlineto
          -60 233 60 vlineto
          hintmask 1100110101000000
          38 callsubr
          hintmask 1110010110000000
          27 callgsubr
          -80 -50 -25 -44 -30 vhcurveto
          hintmask 1101010110000000
          24 16 callsubr
          hlineto
          hintmask 1101001110000000
          170 hmoveto
          45 vlineto
          97 38 25 54 31 33 -8 -25 35 vhcurveto
          -8 -29 -3 -34 -37 vvcurveto
          -34 vlineto
          endchar
        </CharString>
        <CharString name="f_f_l">
          274 44 callgsubr
          167 76 -48 48 -48 69 34 callsubr
          95 180 95 hintmask 1100110110000000
          603 hmoveto
          223 60 hlineto
          -49 callsubr
          633 vlineto
          30 -30 -49 21 -81 hhcurveto
          -89 -53 -25 -43 -30 hvcurveto
          hintmask 1101010110000000
          23 16 callsubr
          -73 hlineto
          25 callsubr
          hintmask 1101001110000000
          -74 20 rlineto
          347 180 -21 callgsubr
          -402 440 rmoveto
          45 vlineto
          hintmask 1110001110000000
          97 38 25 54 31 33 -8 -24 34 vhcurveto
          -7 -30 -3 -34 -37 vvcurveto
          -34 vlineto
          endchar
        </CharString>
        <CharString name="f_i">
          -1 44 callgsubr
          105 159 -65 65 34 callsubr
          83 -83 95 hintmask 11101010
          31 427 rmoveto
          hintmask 11100110
          75 -347 hlineto
          hintmask 11101010
          -6 callsubr
          -60 244 60 vlineto
          hintmask 11100110
          56 callgsubr
          -63 -20 rlineto
          -60 233 60 vlineto
          hintmask 11010101
          38 callsubr
          hintmask 11100110
          27 callgsubr
          -153 -45 -93 -137 vhcurveto
          -34 vlineto
          hintmask 11101010
          -75 hlineto
          endchar
        </CharString>
        <CharString name="f_l">
          -1 44 callgsubr
          195 69 hstem
          106 95 180 95 vstem
          476 713 rmoveto
          30 -30 -49 21 -81 hhcurveto
          -172 -38 -95 -135 hvcurveto
          -34 -75 -73 75 -21 callgsubr
          -60 223 60 vlineto
          -49 callsubr
          endchar
        </CharString>
        <CharString name="five">
          -58 -11 72 -72 221 122 135 -76 76 178 75 hstemhm
          43 100 -81 94 214 104 hintmask 10101011
          158 645 rmoveto
          271 75 -367 -388 94 hlineto
          hintmask 10011101
          37 22 44 22 43 hhcurveto
          81 24 -77 -83 -96 -28 -74 -88 hvcurveto
          hintmask 01101101
          -82 -29 65 84 hvcurveto
          -100 hlineto
          -128 54 -93 152 168 57 115 137 153 -72 73 -115 -72 -41 -28 -45 -19 vhcurveto
          endchar
        </CharString>
        <CharString name="fiveeighths">
          -55 9 callgsubr
          158 48 106 35 47 45 hstemhm
          39 52 64 57 79 50 82 56 hintmask 0111111111100000
          116 hmoveto
          -80 callgsubr
          hintmask 1011111111100000
          -67 callgsubr
          -295 511 -72 callsubr
        </CharString>
        <CharString name="fiveinferior">
          -320 -5 48 callgsubr
          231 -72 callsubr
        </CharString>
        <CharString name="fivesuperior">
          -319 439 48 callgsubr
          675 -72 callsubr
        </CharString>
        <CharString name="florin">
          -44 -225 74 -74 159 493 73 105 159 -74 74 hstemhm
          -85 87 160 95 -80 95 152 87 hintmask 1011011010000000
          68 427 rmoveto
          103 hlineto
          -18 -432 rlineto
          -102 -4 -23 -44 -60 hhcurveto
          -42 -22 20 39 hvcurveto
          hintmask 0111011010000000
          9 1 8 9 vvcurveto
          -86 hlineto
          -1 -11 -1 -12 -11 vvcurveto
          -66 44 -59 110 139 34 95 135 6 vhcurveto
          18 422 rlineto
          135 hlineto
          3 73 rlineto
          -134 hlineto
          hintmask 1010110110000000
          2 44 rlineto
          102 4 24 44 60 hhcurveto
          42 22 -22 -37 hvcurveto
          hintmask 1011011010000000
          -9 -1 -8 -9 vvcurveto
          87 hlineto
          1 11 0 12 11 vvcurveto
          66 -44 59 -110 vhcurveto
          hintmask 1011010110000000
          -138 -35 -91 -139 -7 hvcurveto
          -2 -34 rlineto
          -104 hlineto
          endchar
        </CharString>
        <CharString name="four">
          -12 21 -21 200 75 445 -20 hstem
          327 99 vstem
          327 80 rmoveto
          -93 -20 rlineto
          -60 285 -15 callgsubr
          20 rlineto
          120 93 75 -93 445 -159 vlineto
          -248 -435 rlineto
          -85 308 vlineto
          449 vmoveto
          -374 -207 vlineto
          endchar
        </CharString>
        <CharString name="fourinferior">
          -293 0 31 callgsubr
          47 -35 callsubr
        </CharString>
        <CharString name="foursuperior">
          -294 444 31 callgsubr
          491 -35 callsubr
        </CharString>
        <CharString name="fraction">
          -485 -69 callgsubr
          hstem
          -99 hmoveto
          -80 callgsubr
          endchar
        </CharString>
        <CharString name="g">
          -26 callsubr
          8 callgsubr
          184 91 -67 96 hintmask 1111001001000000
          219 510 -77 callsubr
          hintmask 1111010000100000
          -81 callgsubr
          hintmask 1110110001000000
          -46 callgsubr
          hintmask 1111000011000000
          -79 callsubr
          hintmask 1111000100100000
          -55 callgsubr
          endchar
        </CharString>
        <CharString name="gbreve">
          -26 callsubr
          85 56 -56 130 8 callgsubr
          -56 78 162 91 -67 96 hintmask 1111010010001000
          219 510 -77 callsubr
          hintmask 1111010100000100
          -81 callgsubr
          hintmask 1110110100001000
          -46 callgsubr
          hintmask 1111010000101000
          -79 callsubr
          hintmask 1111001001000100
          -55 callgsubr
          73 687 rmoveto
          hintmask 1111010100001000
          21 callsubr
          hintmask 1111001000011000
          -75 callsubr
        </CharString>
        <CharString name="gcircumflex">
          -26 callsubr
          230 -20 8 callgsubr
          184 91 -67 96 hintmask 1111010100100000
          219 510 -77 callsubr
          hintmask 1111011000010000
          -81 callgsubr
          hintmask 1110111000100000
          -46 callgsubr
          hintmask 1111010001100000
          -79 callsubr
          hintmask 1111010010010000
          -55 callgsubr
          70 702 -94 callsubr
        </CharString>
        <CharString name="gcommaaccent">
          -98 -225 72 0 161 0 68 0 63 0 68 233 -16 callsubr
          30 55 190 -20 8 callgsubr
          47 99 38 91 -67 96 hintmask 1010101110100110
          271 755 rmoveto
          -37 hlineto
          -42 -89 rlineto
          -101 99 101 -42 vlineto
          -30 -156 -77 callsubr
          hintmask 1001010011000101
          -81 callgsubr
          hintmask 1010101111000110
          -46 callgsubr
          hintmask 0100110010001110
          -79 callsubr
          hintmask 0100110010010101
          -55 callgsubr
          endchar
        </CharString>
        <CharString name="gdotaccent">
          -26 callsubr
          119 127 8 callgsubr
          30 128 26 91 -67 96 hintmask 1111010100110000
          219 510 -77 callsubr
          hintmask 1111011000101000
          -81 callgsubr
          hintmask 1110111000110000
          -46 callgsubr
          hintmask 1111010001110000
          -79 callsubr
          hintmask 1111010010101000
          -55 callgsubr
          4 591 rmoveto
          -107 callgsubr
        </CharString>
        <CharString name="germandbls">
          -12 0 59 -49 -21 701 74 hstemhm
          13 170 -95 95 57 105 -13 97 -3 105 hintmask 10110101
          345 423 rmoveto
          hintmask 10101010
          68 84 37 100 vvcurveto
          64 -36 72 -133 -142 -30 -93 -137 vhcurveto
          -454 vlineto
          hintmask 10110010
          -6 callsubr
          -60 170 544 vlineto
          104 20 42 62 49 18 -26 -36 vhcurveto
          hintmask 10110101
          -80 -92 -15 -115 -175 186 9 -123 vvcurveto
          -38 -21 -32 -66 -28 -37 7 25 -22 vhcurveto
          -16 -68 rlineto
          hintmask 01110101
          -24 22 59 -10 44 hhcurveto
          115 55 52 92 hvcurveto
          187 -186 -6 109 vvcurveto
          endchar
        </CharString>
        <CharString name="grave">
          -367 565 155 hstem
          123 720 -52 callsubr
        </CharString>
        <CharString name="grave.cap">
          -327 791 125 hstem
          143 916 -62 callgsubr
        </CharString>
        <CharString name="greater">
          -154 145 46 callgsubr
          371 297 7 callgsubr
          endchar
        </CharString>
        <CharString name="greaterequal">
          -136 74 73 477 -20 hstem
          382 377 7 callgsubr
          192 -57 rmoveto
          -314 -73 314 hlineto
          endchar
        </CharString>
        <CharString name="guillemotleft">
          -72 65 46 callgsubr
          161 44 -18 callgsubr
          326 -206 -18 callgsubr
          endchar
        </CharString>
        <CharString name="guillemotright">
          -72 65 46 callgsubr
          462 250 -18 callsubr
          -66 206 -18 callsubr
          endchar
        </CharString>
        <CharString name="guilsinglleft">
          -268 65 46 callgsubr
          161 44 -18 callgsubr
          endchar
        </CharString>
        <CharString name="guilsinglright">
          -268 65 46 callgsubr
          266 250 -18 callsubr
          endchar
        </CharString>
        <CharString name="h">
          -72 callgsubr
          endchar
        </CharString>
        <CharString name="hbar">
          -2 21 -21 440 70 55 63 -63 190 hstemhm
          13 170 -170 245 4 callgsubr
          199 3 callgsubr
          hintmask 1110001100000000
          12 565 rmoveto
          76 -485 hlineto
          hintmask 1110100100000000
          -6 callsubr
          -60 vlineto
          hintmask 1110010100000000
          -2 callgsubr
          hintmask 1110100100000000
          -49 callsubr
          239 vlineto
          64 33 57 76 80 10 -63 -70 vhcurveto
          -307 vlineto
          hintmask 1110100010000000
          171 60 hlineto
          hintmask 1110100100000000
          -39 callgsubr
          145 103 63 -103 vlineto
          hintmask 1101001100000000
          127 16 callgsubr
          76 -20 rlineto
          hintmask 1110001100000000
          -47 -76 vlineto
          endchar
        </CharString>
        <CharString name="hcircumflex">
          -72 callgsubr
          50 403 -94 callsubr
        </CharString>
        <CharString name="hdotbelow">
          -2 -1 callsubr
          440 70 245 -20 hstemhm
          12 171 -171 -23 callsubr
          44 128 27 3 callgsubr
          hintmask 1111100101000000
          382 hmoveto
          171 60 hlineto
          hintmask 1111100110000000
          -39 callgsubr
          335 16 callgsubr
          hintmask 1111001110000000
          7 callsubr
          -60 vlineto
          hintmask 1111010010000000
          -2 callgsubr
          hintmask 1111100101000000
          -49 callsubr
          239 vlineto
          64 33 57 76 80 10 -63 -70 vhcurveto
          -91 -522 rmoveto
          -107 callgsubr
        </CharString>
        <CharString name="hungarumlaut">
          -204 565 155 hstem
          20 565 -88 callgsubr
          108 -155 -88 callgsubr
          endchar
        </CharString>
        <CharString name="hungarumlaut.cap">
          -122 791 125 hstem
          20 41 callgsubr
          90 -125 -92 callgsubr
          endchar
        </CharString>
        <CharString name="hyphen">
          -139 214 73 hstem
          56 214 17 callsubr
        </CharString>
        <CharString name="i">
          -279 21 29 callsubr
          -190 128 -108 95 hintmask 11101000
          14 callsubr
          hintmask 11110000
          26 callsubr
          hintmask 11101000
          43 callsubr
          hintmask 11100100
          -107 callgsubr
        </CharString>
        <CharString name="iacute">
          -19 callsubr
          85 155 -82 callsubr
          91 505 -88 callgsubr
          endchar
        </CharString>
        <CharString name="ibreve">
          -19 callsubr
          85 44 callsubr
          1 78 -49 -40 callgsubr
          4 callgsubr
          hintmask 11100010
          14 callsubr
          hintmask 11100100
          -64 callgsubr
          hintmask 11101001
          -35 callgsubr
          hintmask 11010010
          -73 -20 rlineto
          190 635 rmoveto
          hintmask 11101001
          21 callsubr
          hintmask 11011001
          -75 callsubr
        </CharString>
        <CharString name="icircumflex">
          -19 callsubr
          230 -20 -82 callsubr
          179 650 -94 callsubr
        </CharString>
        <CharString name="idieresis">
          -19 callsubr
          128 118 hstemhm
          -14 119 -75 -40 callgsubr
          4 callgsubr
          -6 119 -13 callsubr
          15 548 rmoveto
          hintmask 11110001
          -105 callgsubr
        </CharString>
        <CharString name="idotbelow">
          -279 -215 127 109 29 callsubr
          -190 128 -108 95 hintmask 11110100
          14 callsubr
          hintmask 11111000
          -64 callgsubr
          hintmask 11110001
          -35 callgsubr
          hintmask 11110100
          43 callsubr
          hintmask 11110010
          37 27 27 37 37 -27 26 -37 -37 -27 -26 -37 -37 27 -27 37 hvcurveto
          3 -814 rmoveto
          -107 callgsubr
        </CharString>
        <CharString name="igrave">
          -19 callsubr
          85 155 -82 callsubr
          98 660 -52 callsubr
        </CharString>
        <CharString name="ij">
          -35 -225 76 170 29 callsubr
          -190 128 -108 95 101 14 callgsubr
          hintmask 1111010010000000
          14 callsubr
          hintmask 1111100010000000
          -64 callgsubr
          hintmask 1111000110000000
          -35 callgsubr
          hintmask 1111010010000000
          43 callsubr
          hintmask 1111001010000000
          37 27 27 37 37 -27 26 -37 -37 -27 -26 -37 -37 27 -27 37 hvcurveto
          322 -99 20 callsubr
          hintmask 1111100010000000
          -97 callsubr
          -49 614 rmoveto
          hintmask 1111100001000000
          -107 callgsubr
        </CharString>
        <CharString name="imacron">
          -19 callsubr
          135 63 -82 callsubr
          -17 555 -60 callgsubr
        </CharString>
        <CharString name="iogonek">
          -279 -210 69 162 29 callsubr
          -222 76 -44 128 -108 95 hintmask 1111010000000000
          30 hmoveto
          85 hlineto
          hintmask 1111001000000000
          -64 callsubr
          -20 callgsubr
          vhcurveto
          hintmask 1111010000000000
          98 60 hlineto
          hintmask 1111100000000000
          -64 callgsubr
          hintmask 1111000010000000
          -35 callgsubr
          hintmask 1111010000000000
          43 callsubr
          hintmask 1111000100000000
          -107 callgsubr
        </CharString>
        <CharString name="itilde">
          -19 callsubr
          80 70 -4 70 51 callsubr
          -13 callsubr
          246 633 -54 callsubr
          hintmask 11011000
          -97 callgsubr
          hintmask 11101000
          -85 callgsubr
        </CharString>
        <CharString name="j">
          -321 -225 76 649 -20 119 127 hstemhm
          13 14 callgsubr
          hintmask 11110000
          183 500 20 callsubr
          -97 callsubr
          -49 614 rmoveto
          hintmask 11101000
          -107 callgsubr
        </CharString>
        <CharString name="jcircumflex">
          -321 -225 76 649 -20 230 31 callsubr
          hintmask 11110000
          -97 callsubr
          12 725 -94 callsubr
        </CharString>
        <CharString name="k">
          -40 -16 callgsubr
          275 -20 hstemhm
          12 33 callgsubr
          hintmask 11101000
          13 hmoveto
          235 60 hlineto
          hintmask 11110000
          -31 callsubr
          hintmask 11100100
          7 callsubr
          endchar
        </CharString>
        <CharString name="kcommaaccent">
          -40 -22 callgsubr
          43 500 -20 275 -20 hstemhm
          12 33 callgsubr
          34 99 hintmask 11110100
          13 hmoveto
          235 60 hlineto
          hintmask 11111001
          -31 callsubr
          hintmask 11110011
          7 callsubr
          204 -194 -89 callsubr
        </CharString>
        <CharString name="kgreenlandic">
          -2 -16 callgsubr
          hstemhm
          30 33 callgsubr
          hintmask 11010000
          31 hmoveto
          235 60 hlineto
          hintmask 11100000
          -65 20 rlineto
          87 vlineto
          49 55 159 -222 rlineto
          142 60 hlineto
          -87 20 -158 205 121 135 89 25 callgsubr
          -127 vlineto
          -188 -219 rlineto
          219 16 callgsubr
          hintmask 11001000
          76 -20 rlineto
          -340 vlineto
          -6 callsubr
          endchar
        </CharString>
        <CharString name="l">
          -296 21 -21 755 -11 callsubr
          hintmask 11010000
          13 -33 callsubr
          hintmask 11100000
          8 callsubr
          hintmask 11001000
          -19 callgsubr
          endchar
        </CharString>
        <CharString name="lacute">
          -296 21 -21 755 -20 94 155 -28 callgsubr
          89 769 -88 callgsubr
          endchar
        </CharString>
        <CharString name="lcaron">
          -296 21 -21 620 106 29 -11 callsubr
          59 107 -5 callsubr
          294 500 -65 callsubr
        </CharString>
        <CharString name="lcommaaccent">
          -296 -22 callgsubr
          43 755 -20 -28 callgsubr
          73 -194 -89 callsubr
        </CharString>
        <CharString name="ldot">
          -210 21 -21 330 127 298 -11 callsubr
          61 128 -5 callsubr
          293 270 rmoveto
          -107 callgsubr
        </CharString>
        <CharString name="less">
          -154 145 46 callgsubr
          242 124 6 callsubr
          endchar
        </CharString>
        <CharString name="lessequal">
          -136 74 73 477 -20 hstem
          249 204 6 callsubr
          10 -303 17 callsubr
        </CharString>
        <CharString name="logicalnot">
          -133 88 199 -73 73 hstemhm
          286 85 hintmask 01100000
          57 214 rmoveto
          229 hlineto
          hintmask 10100000
          -126 85 199 -314 vlineto
          endchar
        </CharString>
        <CharString name="lslash">
          -217 21 -21 755 -20 hstemhm
          24 200 -168 -40 callgsubr
          4 callgsubr
          -95 200 hintmask 11100000
          24 314 rmoveto
          hintmask 11000100
          105 31 rlineto
          -265 vlineto
          hintmask 11010000
          -73 -20 rlineto
          -60 vlineto
          hintmask 11001000
          -7 callgsubr
          hintmask 11100000
          -49 callsubr
          294 vlineto
          hintmask 11000010
          105 31 rlineto
          73 vlineto
          hintmask 11100000
          -105 -31 rlineto
          308 -170 -60 vlineto
          hintmask 11000100
          -5 callgsubr
          -257 vlineto
          hintmask 11100000
          -105 -31 rlineto
          endchar
        </CharString>
        <CharString name="m">
          265 21 -21 440 -16 callsubr
          36 callsubr
          176 95 -95 170 101 3 callgsubr
          hintmask 1101010100000000
          31 hmoveto
          -2 callgsubr
          hintmask 1100110100000000
          -49 callsubr
          212 vlineto
          56 28 92 65 78 5 -72 -96 vhcurveto
          -272 vlineto
          hintmask 1101001100000000
          170 60 hlineto
          hintmask 1101010100000000
          -49 callsubr
          206 vlineto
          58 25 96 68 78 5 -72 -96 vhcurveto
          -272 vlineto
          hintmask 1101010010000000
          171 60 hlineto
          hintmask 1100110100000000
          -49 callsubr
          271 vlineto
          80 -23 79 -118 -65 -51 -37 -58 -21 vhcurveto
          57 -12 -37 38 -86 hhcurveto
          -65 -54 -40 -50 -11 hvcurveto
          hintmask 1011010100000000
          -23 callgsubr
          hintmask 1101010100000000
          -60 vlineto
          hintmask 1100110100000000
          76 -20 rlineto
          -340 vlineto
          -6 callsubr
          endchar
        </CharString>
        <CharString name="macron">
          -181 615 63 hstem
          55 615 -60 callgsubr
        </CharString>
        <CharString name="macron.cap">
          -251 821 63 hstem
          20 821 -60 callgsubr
        </CharString>
        <CharString name="minus">
          -135 214 73 hstem
          58 214 17 callsubr
        </CharString>
        <CharString name="mu">
          20 49 callgsubr
          28 47 callgsubr
          103 -62 callsubr
        </CharString>
        <CharString name="multiply">
          -182 124 -21 293 -20 hstem
          54 341 rmoveto
          89 -89 -98 -98 51 -51 98 98 88 -88 48 48 -88 88 96 96 -51 51 -96 -96 -89 89 rlineto
          endchar
        </CharString>
        <CharString name="n">
          21 21 -21 440 -16 callsubr
          hstemhm
          30 -38 callsubr
          hintmask 11010010
          -10 callsubr
          hintmask 11001100
          -76 callgsubr
          hintmask 10110100
          -23 callgsubr
          hintmask 11010100
          -60 vlineto
          hintmask 11001100
          -63 callsubr
          hintmask 11010100
          -2 callgsubr
          hintmask 11001010
          -49 callsubr
          218 vlineto
          64 35 78 78 81 10 -62 -71 vhcurveto
          endchar
        </CharString>
        <CharString name="nacute">
          21 21 -21 440 -16 callsubr
          85 155 -70 callsubr
          -117 258 -88 callgsubr
          endchar
        </CharString>
        <CharString name="napostrophe">
          90 21 -21 440 -16 callsubr
          240 -20 hstemhm
          -11 73 37 -38 callsubr
          hintmask 1101110010000000
          474 hmoveto
          171 60 hlineto
          hintmask 1101101100000000
          -76 callgsubr
          hintmask 1011110100000000
          -23 callgsubr
          hintmask 1101110100000000
          -60 vlineto
          hintmask 1101101100000000
          -63 callsubr
          hintmask 1101110100000000
          -2 callgsubr
          hintmask 1101101010000000
          -49 callsubr
          218 vlineto
          64 35 78 78 81 10 -62 -71 vhcurveto
          hintmask 1011110100000000
          -478 193 rmoveto
          59 hlineto
          15 220 rlineto
          -89 hlineto
          endchar
        </CharString>
        <CharString name="ncaron">
          21 21 -21 440 -16 callsubr
          230 -20 -70 callsubr
          70 403 -86 callsubr
        </CharString>
        <CharString name="ncommaaccent">
          21 -22 callgsubr
          43 440 -16 callsubr
          36 callsubr
          65 99 40 3 callgsubr
          hintmask 1110100010000000
          -10 callsubr
          hintmask 1110011100000000
          -76 callgsubr
          hintmask 1101100100000000
          -23 callgsubr
          hintmask 1110100100000000
          -60 vlineto
          hintmask 1110011100000000
          -63 callsubr
          hintmask 1110100100000000
          -2 callgsubr
          hintmask 1110011010000000
          -49 callsubr
          218 vlineto
          64 35 78 78 81 10 -62 -71 vhcurveto
          -139 -441 -89 callsubr
        </CharString>
        <CharString name="ndotaccent">
          21 21 -21 440 -16 callsubr
          119 127 36 callsubr
          46 128 30 3 callgsubr
          hintmask 1101100010000000
          -10 callsubr
          hintmask 1101011100000000
          -76 callgsubr
          hintmask 1011100100000000
          -23 callgsubr
          hintmask 1101100100000000
          -60 vlineto
          hintmask 1101011100000000
          -63 callsubr
          hintmask 1101100100000000
          -2 callgsubr
          hintmask 1101011010000000
          -49 callsubr
          218 vlineto
          64 35 78 78 81 10 -62 -71 vhcurveto
          -94 292 rmoveto
          -107 callgsubr
        </CharString>
        <CharString name="nine">
          -19 -11 72 -72 221 60 73 317 71 hstemhm
          42 112 -100 100 245 99 hintmask 10111010
          266 731 rmoveto
          -194 -30 -137 -93 -92 29 -139 190 57 60 30 54 17 hvcurveto
          4 hlineto
          -208 -3 -10 -85 -121 hhcurveto
          hintmask 01110110
          -89 -22 64 85 hvcurveto
          -100 hlineto
          -132 51 -89 154 202 37 136 240 178 -2 188 -230 vhcurveto
          -2 -71 rmoveto
          116 10 -103 -52 -61 -10 -101 -121 -110 -5 107 55 52 7 103 113 hvcurveto
          endchar
        </CharString>
        <CharString name="nineinferior">
          -300 -5 42 callgsubr
          281 -56 callgsubr
        </CharString>
        <CharString name="ninesuperior">
          -300 439 42 callgsubr
          725 -56 callgsubr
        </CharString>
        <CharString name="notequal">
          -144 90 195 -73 73 110 73 -73 195 hstemhm
          hintmask 10100000
          48 395 rmoveto
          145 hlineto
          -41 -110 rlineto
          -104 hlineto
          hintmask 01100000
          -73 76 vlineto
          hintmask 10100000
          -45 -122 rlineto
          79 hlineto
          hintmask 01100000
          45 122 rlineto
          169 73 -142 hlineto
          40 110 rlineto
          102 73 -75 hlineto
          hintmask 10010000
          45 122 rlineto
          -76 hlineto
          hintmask 10100000
          -46 -122 rlineto
          -172 hlineto
          endchar
        </CharString>
        <CharString name="ntilde">
          21 21 -21 440 -16 callsubr
          80 70 -4 70 hstemhm
          30 -38 callsubr
          hintmask 1101010010000000
          -10 callsubr
          hintmask 1101001100000000
          -76 callgsubr
          hintmask 1011010100000000
          -23 callgsubr
          hintmask 1101010100000000
          -60 vlineto
          hintmask 1101001100000000
          -63 callsubr
          hintmask 1101010100000000
          -2 callgsubr
          hintmask 1101001010000000
          -49 callsubr
          218 vlineto
          64 35 78 78 81 10 -62 -71 vhcurveto
          20 386 -54 callsubr
          hintmask 1100110100000000
          -97 callgsubr
          hintmask 1101010100000000
          -85 callgsubr
        </CharString>
        <CharString name="numbersign">
          -4 21 -21 250 63 124 63 255 -20 hstem
          51 437 rmoveto
          101 hlineto
          -18 -124 rlineto
          -109 -63 100 50 callgsubr
          135 50 callgsubr
          110 63 -101 hlineto
          18 124 rlineto
          109 63 -100 50 callsubr
          -135 50 callsubr
          -110 hlineto
          171 -63 rmoveto
          135 hlineto
          -18 -124 rlineto
          -135 hlineto
          endchar
        </CharString>
        <CharString name="o">
          -14 callsubr
          hstem
          42 106 204 106 vstem
          -105 callsubr
          endchar
        </CharString>
        <CharString name="oacute">
          -14 callsubr
          55 155 hstem
          42 106 204 106 vstem
          -105 callsubr
          -39 515 -88 callgsubr
          endchar
        </CharString>
        <CharString name="obreve">
          -14 callsubr
          55 44 callsubr
          42 106 -43 78 169 106 hintmask 11011010
          -105 callsubr
          74 645 rmoveto
          hintmask 11101010
          21 callsubr
          hintmask 11010110
          -75 callsubr
        </CharString>
        <CharString name="ocircumflex">
          -14 callsubr
          200 -20 hstem
          42 106 204 106 vstem
          -105 callsubr
          58 660 -94 callsubr
        </CharString>
        <CharString name="odieresis">
          -14 callsubr
          98 118 hstemhm
          42 106 -53 -8 callgsubr
          -68 106 hintmask 11110010
          -105 callsubr
          -96 558 rmoveto
          hintmask 11101100
          -105 callgsubr
        </CharString>
        <CharString name="odotbelow">
          -67 -29 callsubr
          78 60 400 60 hstem
          42 106 39 128 37 106 vstem
          -105 callsubr
          1 -265 rmoveto
          -107 callgsubr
        </CharString>
        <CharString name="oe">
          222 -11 58 -58 159 79 65 155 63 23 callsubr
          205 105 201 91 hintmask 01111110
          248 -11 rmoveto
          79 50 22 37 31 hvcurveto
          -38 31 50 -21 77 hhcurveto
          141 36 74 85 1 hvcurveto
          -87 hlineto
          hintmask 10111110
          -46 -1 -12 -55 -79 hhcurveto
          -91 -15 65 115 -2 hvcurveto
          292 hlineto
          167 -18 116 -162 -81 -50 -23 -37 -31 vhcurveto
          37 -31 -50 23 -78 hhcurveto
          -179 -28 -116 -145 -142 28 -118 179 hvcurveto
          2 61 rmoveto
          -93 -10 91 104 112 10 90 93 95 7 -95 -107 -104 -7 -91 -95 hvcurveto
          315 401 rmoveto
          67 26 -55 -104 hvcurveto
          -201 hlineto
          95 5 25 64 78 hhcurveto
          endchar
        </CharString>
        <CharString name="ogonek">
          -341 -210 69 -69 219 hstemhm
          30 55 callgsubr
          hintmask 10010000
          103 9 rmoveto
          -45 -46 -28 -30 -51 -56 callsubr
          hintmask 01100000
          -30 -13 18 21 22 14 46 43 43 hvcurveto
          endchar
        </CharString>
        <CharString name="ograve">
          -14 callsubr
          55 155 hstem
          42 106 204 106 vstem
          -105 callsubr
          -13 670 -52 callsubr
        </CharString>
        <CharString name="ohungarumlaut">
          -14 callsubr
          55 155 hstem
          42 106 204 106 vstem
          -105 callsubr
          -115 515 -88 callgsubr
          108 -155 -88 callgsubr
          endchar
        </CharString>
        <CharString name="omacron">
          -14 callsubr
          105 63 hstem
          42 106 204 106 vstem
          -105 callsubr
          -138 565 -60 callgsubr
        </CharString>
        <CharString name="one">
          -213 -69 callgsubr
          hstemhm
          32 206 vstemhm
          238 -3 callsubr
          -206 -28 rlineto
          -69 vlineto
          hintmask 11100000
          107 8 rlineto
          -551 vlineto
          -103 -20 rlineto
          -60 295 -15 callgsubr
          20 rlineto
          endchar
        </CharString>
        <CharString name="oneeighth">
          -87 9 callgsubr
          439 43 callgsubr
          119 50 82 56 hintmask 0111101011000000
          88 hmoveto
          -80 callgsubr
          hintmask 1011011011000000
          113 19 callgsubr
          hintmask 1011100111000000
          42 -186 hlineto
          hintmask 1011011011000000
          -38 callgsubr
          209 -496 -104 callgsubr
          endchar
        </CharString>
        <CharString name="onehalf">
          -64 0 45 188 48 439 -20 22 -20 hstemhm
          41 91 -49 49 156 177 -57 57 hintmask 11101010
          102 hmoveto
          -80 callgsubr
          hintmask 11011010
          92 19 callgsubr
          hintmask 11100110
          42 -186 hlineto
          hintmask 11011010
          -38 callgsubr
          337 -413 -71 callgsubr
          hintmask 11101001
          -47 callsubr
        </CharString>
        <CharString name="oneinferior">
          -377 21 39 callgsubr
          278 -2 callsubr
        </CharString>
        <CharString name="onequarter">
          -93 55 callsubr
          448 43 callgsubr
          216 50 hintmask 0110101010000000
          88 hmoveto
          -80 callgsubr
          hintmask 1000011010000000
          113 19 callgsubr
          hintmask 1000100110000000
          42 -186 hlineto
          hintmask 1000011010000000
          -38 callgsubr
          216 -448 rmoveto
          -37 -8 rlineto
          -39 124 39 vlineto
          -37 8 rlineto
          hintmask 0110101010000000
          33 37 40 -37 vlineto
          hintmask 0101101010000000
          -34 callsubr
          hintmask 1000101010000000
          -113 -73 vlineto
          endchar
        </CharString>
        <CharString name="onesuperior">
          -377 465 39 callgsubr
          722 -2 callsubr
        </CharString>
        <CharString name="onethird">
          -89 -5 47 -21 -21 123 39 72 47 439 43 callgsubr
          126 178 -63 63 hintmask 0111101010000000
          88 hmoveto
          -80 callgsubr
          hintmask 1011011010000000
          113 19 callgsubr
          hintmask 1011100110000000
          42 -186 hlineto
          hintmask 1011011010000000
          -38 callgsubr
          211 -449 -90 callsubr
          hintmask 1011101001000000
          -71 callsubr
          endchar
        </CharString>
        <CharString name="oogonek">
          -67 -212 69 134 59 400 60 hstemhm
          42 106 7 164 33 106 vstemhm
          155 -120 rmoveto
          -84 callgsubr
          vhcurveto
          hintmask 11111100
          -30 -13 18 21 19 10 38 32 38 hvcurveto
          140 10 45 102 147 vvcurveto
          154 -50 106 -158 -158 -50 -106 -154 -142 42 -101 129 -15 vhcurveto
          -36 -38 -22 -29 -45 vvcurveto
          95 170 rmoveto
          -92 -10 100 100 100 10 100 92 92 10 -100 -100 -100 -10 -100 -92 hvcurveto
          endchar
        </CharString>
        <CharString name="ordfeminine">
          -231 445 42 -42 161 -146 -21 238 48 -5 -20 hstemhm
          40 68 -52 52 87 62 hintmask 00110101
          126 439 rmoveto
          22 36 7 34 11 hvcurveto
          hintmask 10010101
          11 -35 rlineto
          92 38 hlineto
          -41 11 rlineto
          157 vlineto
          51 -30 23 -49 -33 -23 -11 -24 -15 vhcurveto
          -4 hlineto
          hintmask 10001011
          -11 30 rlineto
          -36 -90 52 hlineto
          hintmask 01010101
          23 14 24 33 31 9 -22 -26 vhcurveto
          -20 vlineto
          -52 -3 rlineto
          -75 -4 -28 -34 -50 vvcurveto
          hintmask 00110101
          -61 48 -18 38 vhcurveto
          hintmask 10010101
          20 48 rmoveto
          -18 -20 8 24 22 11 17 37 4 hvcurveto
          39 4 rlineto
          -23 vlineto
          -28 -14 -28 -35 vhcurveto
          endchar
        </CharString>
        <CharString name="ordmasculine">
          -237 439 43 198 45 hstem
          40 68 112 68 vstem
          163 439 rmoveto
          109 16 65 78 77 -16 66 -109 -107 -16 -64 -79 -78 16 -65 107 hvcurveto
          1 43 rmoveto
          -50 -6 45 52 56 6 45 50 53 3 -47 -54 -52 -3 -45 -53 hvcurveto
          endchar
        </CharString>
        <CharString name="oslash">
          -49 -10 60 -42 -21 463 60 hstemhm
          46 106 204 106 hintmask 01111000
          81 -13 rmoveto
          38 44 rlineto
          hintmask 10111000
          -27 32 44 -14 59 hhcurveto
          158 50 106 154 55 -7 49 -15 41 hvcurveto
          81 92 rlineto
          -76 hlineto
          -35 -40 rlineto
          40 -33 -50 23 -73 hhcurveto
          -158 -50 -106 -154 -70 10 -59 25 -45 hvcurveto
          hintmask 01111000
          -79 -89 rlineto
          150 263 rmoveto
          100 10 100 92 51 26 -32 -45 13 vhcurveto
          -188 -212 rlineto
          -4 28 0 30 31 vvcurveto
          hintmask 10111000
          102 -200 rmoveto
          -39 -24 17 28 -15 hvcurveto
          179 203 rlineto
          1 -16 0 -16 -16 vvcurveto
          -100 -10 -100 -92 vhcurveto
          endchar
        </CharString>
        <CharString name="oslashacute">
          -51 -10 60 -29 -21 450 60 -10 -20 85 155 hstemhm
          50 106 204 106 hintmask 01101110
          77 hmoveto
          36 40 rlineto
          hintmask 10011110
          -32 32 47 -18 66 hhcurveto
          158 50 106 154 62 -8 54 -21 43 hvcurveto
          80 91 rlineto
          -76 hlineto
          -37 -42 rlineto
          hintmask 01101110
          33 -33 -47 19 -66 hhcurveto
          -158 -50 -106 -154 -63 8 -54 20 -43 hvcurveto
          -80 -90 rlineto
          158 250 rmoveto
          100 10 100 92 45 26 -24 -37 14 vhcurveto
          -185 -208 rlineto
          -2 22 0 24 23 vvcurveto
          hintmask 10101110
          102 -200 rmoveto
          -45 -26 23 36 -14 hvcurveto
          184 209 rlineto
          2 -22 1 -23 -23 vvcurveto
          -100 -10 -100 -92 vhcurveto
          -38 515 -88 callgsubr
          endchar
        </CharString>
        <CharString name="otilde">
          -14 callsubr
          50 -13 callgsubr
          42 106 204 106 hintmask 11101100
          -105 callsubr
          125 643 -54 callsubr
          hintmask 11011100
          -97 callgsubr
          hintmask 11101100
          -85 callgsubr
        </CharString>
        <CharString name="p">
          41 callsubr
          88 95 206 102 hintmask 11101100
          13 -215 rmoveto
          275 62 hlineto
          -105 16 rlineto
          209 vlineto
          1 callgsubr
          hintmask 11011100
          -20 79 rlineto
          -150 hlineto
          hintmask 11101100
          -60 vlineto
          -5 callgsubr
          -557 vlineto
          -6 callsubr
          282 597 rmoveto
          76 18 -91 -100 -100 -18 -89 -76 -74 -38 65 68 hvcurveto
          58 callgsubr
        </CharString>
        <CharString name="paragraph">
          38 -6 callgsubr
          855 80 hstemhm
          185 170 -65 65 66 65 hintmask 11011000
          486 640 rmoveto
          93 25 callgsubr
          -384 vlineto
          -108 -65 -70 -140 -99 40 -121 122 hvcurveto
          106 -429 hlineto
          hintmask 11101000
          -105 -16 rlineto
          -60 170 855 66 -855 65 vlineto
          endchar
        </CharString>
        <CharString name="parenleft">
          -280 -6 callgsubr
          935 -20 hstem
          39 105 vstem
          283 -215 rmoveto
          -114 115 -25 155 196 vvcurveto
          196 25 156 114 117 vhcurveto
          -70 hlineto
          -119 -87 -55 -157 -226 vvcurveto
          -226 55 -154 119 -85 vhcurveto
          endchar
        </CharString>
        <CharString name="parenright">
          -280 -6 callgsubr
          935 -20 hstem
          141 105 vstem
          72 -215 rmoveto
          119 85 55 155 224 vvcurveto
          228 -55 156 -119 87 vhcurveto
          -70 hlineto
          114 -117 25 -156 -198 vvcurveto
          -194 -25 -155 -114 -115 vhcurveto
          endchar
        </CharString>
        <CharString name="percent">
          199 0 callsubr
          hintmask 0101101111000000
          170 352 -90 callgsubr
          71 -411 rmoveto
          hintmask 0110011111000000
          -80 callgsubr
          hintmask 1010101111000000
          410 -10 -90 callgsubr
          endchar
        </CharString>
        <CharString name="period">
          -350 0 102 hstem
          53 109 vstem
          53 53 callsubr
          endchar
        </CharString>
        <CharString name="periodcentered">
          11 callgsubr
        </CharString>
        <CharString name="perthousand">
          538 0 callsubr
          51 75 140 75 hintmask 0101101111110000
          170 352 -90 callgsubr
          71 -411 rmoveto
          hintmask 0110011111110000
          -80 callgsubr
          hintmask 1010101111110000
          410 -10 -90 callgsubr
          338 -59 -90 callgsubr
          endchar
        </CharString>
        <CharString name="plus">
          -195 114 -21 124 68 122 -20 hstem
          149 73 vstem
          38 217 17 callgsubr
          endchar
        </CharString>
        <CharString name="plusminus">
          -155 25 73 184 68 122 -20 hstem
          169 73 vstem
          58 282 17 callgsubr
          -10 -325 17 callsubr
        </CharString>
        <CharString name="q">
          41 callsubr
          41 102 206 95 hintmask 11101100
          234 -215 rmoveto
          284 58 hlineto
          -74 16 rlineto
          561 vlineto
          75 20 rlineto
          hintmask 11011100
          60 -150 vlineto
          -20 -79 rlineto
          hintmask 11101100
          -87 callgsubr
          -209 vlineto
          -115 -16 rlineto
          3 593 5 callgsubr
        </CharString>
        <CharString name="question">
          -121 0 102 416 211 -82 82 hstemhm
          23 100 46 99 43 100 hintmask 11011100
          273 314 rmoveto
          64 55 74 42 131 vvcurveto
          99 -43 88 -149 -150 -46 -90 -121 vhcurveto
          100 hlineto
          hintmask 10111100
          76 28 53 71 69 20 -50 -55 -101 -69 -33 -78 -60 vhcurveto
          10 -177 rlineto
          89 hlineto
          -99 -171 rmoveto
          -46 callsubr
          endchar
        </CharString>
        <CharString name="questiondown">
          -129 -225 82 -82 226 397 102 hstemhm
          27 100 43 99 46 100 hintmask 01111100
          165 190 rmoveto
          -64 -55 -74 -42 -131 vvcurveto
          -99 42 -88 151 149 46 86 140 vhcurveto
          -100 hlineto
          hintmask 10111100
          -95 -28 -49 -70 -70 -20 49 55 101 66 32 81 62 vhcurveto
          -10 173 rlineto
          -89 hlineto
          99 171 rmoveto
          -109 -102 109 hlineto
          endchar
        </CharString>
        <CharString name="quotedbl">
          -249 500 220 hstem
          51 69 75 69 vstem
          59 500 36 callgsubr
          159 -220 36 callgsubr
          endchar
        </CharString>
        <CharString name="quotedblbase">
          -206 -119 220 -101 101 hstemhm
          53 99 55 99 hintmask 01110000
          207 hmoveto
          -44 callgsubr
          -154 -101 18 callgsubr
          endchar
        </CharString>
        <CharString name="quotedblleft">
          -220 500 101 -101 220 hstemhm
          46 99 55 99 hintmask 01110000
          125 -3 callsubr
          -37 hlineto
          hintmask 10110000
          34 callgsubr
          hintmask 01110000
          176 119 rmoveto
          -37 hlineto
          hintmask 10110000
          34 callgsubr
          endchar
        </CharString>
        <CharString name="quotedblright">
          -229 500 220 -101 101 hstemhm
          43 99 55 99 hintmask 01110000
          197 619 18 callgsubr
          -154 -101 18 callgsubr
          endchar
        </CharString>
        <CharString name="quoteleft">
          -374 11 callsubr
          46 99 vstem
          125 -3 callsubr
          -37 hlineto
          34 callgsubr
          endchar
        </CharString>
        <CharString name="quoteright">
          -383 11 callsubr
          43 99 vstem
          43 619 rmoveto
          28 callgsubr
        </CharString>
        <CharString name="quotesinglbase">
          -360 -98 -21 140 -21 101 -20 hstem
          53 99 vstem
          53 hmoveto
          28 callgsubr
        </CharString>
        <CharString name="quotesingle">
          -393 11 callsubr
          51 69 vstem
          59 500 36 callgsubr
          endchar
        </CharString>
        <CharString name="r">
          33 callsubr
          hstemhm
          105 95 hintmask 10110000
          -25 callsubr
          hintmask 11010000
          -83 callgsubr
          endchar
        </CharString>
        <CharString name="racute">
          33 callsubr
          75 155 hstemhm
          105 95 hintmask 10111000
          -25 callsubr
          hintmask 11011000
          -83 callgsubr
          hintmask 10111000
          -177 146 -88 callgsubr
          endchar
        </CharString>
        <CharString name="rcaron">
          33 callsubr
          220 -20 hstemhm
          105 95 hintmask 10111000
          -25 callsubr
          hintmask 11011000
          -83 callgsubr
          hintmask 10111000
          24 291 -86 callsubr
        </CharString>
        <CharString name="rcommaaccent">
          -200 -22 callgsubr
          43 54 callgsubr
          hstemhm
          105 95 hintmask 11011000
          -25 callsubr
          hintmask 11101000
          -83 callgsubr
          hintmask 11011000
          -243 -553 -89 callsubr
        </CharString>
        <CharString name="rdotbelow">
          -200 -1 callsubr
          54 callgsubr
          hstemhm
          90 128 -113 95 hintmask 11011000
          -25 callsubr
          hintmask 11100100
          -83 callgsubr
          hintmask 11011000
          -193 -634 rmoveto
          -107 callgsubr
        </CharString>
        <CharString name="registered">
          252 -111 74 90 227 135 53 88 74 hstem
          38 74 186 67 116 68 156 74 vstem
          -61 callgsubr
          329 -206 rmoveto
          143 35 hlineto
          -32 11 -86 131 rlineto
          69 14 14 48 58 vvcurveto
          64 -18 54 -107 vhcurveto
          -179 -45 hlineto
          53 -11 rlineto
          -313 vlineto
          -53 -11 rlineto
          -35 164 35 vlineto
          -44 11 rlineto
          128 24 vlineto
          86 -136 -34 -3 rlineto
          -76 192 rmoveto
          135 49 vlineto
          59 8 -26 -41 -40 -8 -28 -59 hvcurveto
          endchar
        </CharString>
        <CharString name="ring">
          -337 559 48 70 49 hstem
          30 49 70 49 vstem
          114 559 rmoveto
          -74 callgsubr
          endchar
        </CharString>
        <CharString name="ring.cap">
          -382 791 142 -48 48 hstemhm
          20 47 48 48 hintmask 10110000
          91 791 -40 callsubr
          hintmask 01110000
          -11 callgsubr
          vhcurveto
          endchar
        </CharString>
        <CharString name="s">
          -147 -10 26 callgsubr
          153 75 -75 88 hintmask 1000101010000000
          -82 callgsubr
          vhcurveto
          hintmask 1001001100000000
          -10 callgsubr
          hintmask 1000011100000000
          156 -56 -45 callsubr
          hintmask 1001001100000000
          -83 callsubr
          hintmask 0101001100000000
          -9 callgsubr
          hintmask 0011001100000000
          -9 callsubr
          endchar
        </CharString>
        <CharString name="sacute">
          -147 -10 -59 callgsubr
          85 155 -96 callsubr
          54 503 -88 callgsubr
          endchar
        </CharString>
        <CharString name="scaron">
          -147 -10 -59 callgsubr
          230 -20 -96 callsubr
          272 648 -86 callsubr
        </CharString>
        <CharString name="schwa">
          -96 -11 64 134 65 99 159 hstemhm
          35 96 -81 81 205 92 hintmask 11101100
          230 510 rmoveto
          -143 -36 -74 -85 -1 hvcurveto
          87 hlineto
          hintmask 11110100
          46 1 12 50 81 hhcurveto
          88 16 -69 -126 1 hvcurveto
          -301 hlineto
          -155 19 -108 173 176 25 116 136 172 -36 97 -162 vhcurveto
          1 -457 rmoveto
          -77 -23 44 90 hvcurveto
          203 hlineto
          -83 -8 -28 -51 -67 hhcurveto
          endchar
        </CharString>
        <CharString name="scircumflex">
          -147 -10 -59 callgsubr
          230 -20 -96 callsubr
          170 648 -94 callsubr
        </CharString>
        <CharString name="sdotbelow">
          -147 -29 callsubr
          78 26 callgsubr
          18 128 7 75 -75 88 hintmask 1100010110100000
          -82 callgsubr
          vhcurveto
          hintmask 1100100111000000
          -10 callgsubr
          hintmask 1100001111000000
          156 -56 -45 callsubr
          hintmask 1100100111000000
          -83 callsubr
          hintmask 1010100111000000
          -9 callgsubr
          hintmask 1001100111000000
          -9 callsubr
          103 -277 rmoveto
          -107 callgsubr
        </CharString>
        <CharString name="section">
          -130 -10 71 -71 167 407 167 -71 71 -11 -20 hstemhm
          50 85 -71 71 -71 87 139 81 -81 95 hintmask 1010001001000000
          56 598 rmoveto
          -58 21 -35 29 -24 vhcurveto
          -23 -24 -19 -33 -56 -191 226 61 -110 vvcurveto
          -34 -21 -33 -53 vhcurveto
          hintmask 0110010001000000
          -63 -18 48 48 hvcurveto
          -85 -156 56 hlineto
          20 63 rlineto
          4 hlineto
          -62 8 53 -12 42 hhcurveto
          78 74 40 100 53 -21 33 -30 23 hvcurveto
          23 24 20 33 57 vvcurveto
          hintmask 1001000110000000
          192 -226 -64 113 vvcurveto
          32 18 34 46 vhcurveto
          hintmask 1010010010000000
          55 16 -48 -48 hvcurveto
          85 hlineto
          hintmask 1000110010000000
          156 -56 -45 callsubr
          hintmask 1010010010000000
          67 -8 -54 7 -35 hhcurveto
          -78 -60 -35 -98 hvcurveto
          236 -268 rmoveto
          -23 -7 -19 -9 -15 vhcurveto
          -62 28 -65 19 72 vvcurveto
          22 6 18 9 15 vhcurveto
          62 -28 66 -17 -72 vvcurveto
          endchar
        </CharString>
        <CharString name="semicolon">
          -344 -90 -21 132 -21 101 217 hstemhm
          56 109 vstemhm
          56 27 callsubr
          217 vmoveto
          109 hlineto
          hintmask 11110000
          102 -109 vlineto
          endchar
        </CharString>
        <CharString name="seven">
          -91 21 -27 callgsubr
          -7 callsubr
          hstemhm
          hintmask 11000000
          27 500 rmoveto
          79 hlineto
          hintmask 10100000
          13 145 rlineto
          238 hlineto
          -201 -645 rlineto
          106 hlineto
          192 635 rlineto
          85 -427 vlineto
          endchar
        </CharString>
        <CharString name="seveneighths">
          -78 9 callgsubr
          394 45 hstemhm
          268 50 82 56 hintmask 01111110
          93 hmoveto
          -80 callgsubr
          hintmask 10111110
          -67 callgsubr
          -327 468 -34 callgsubr
        </CharString>
        <CharString name="seveninferior">
          -334 21 -21 231 45 hstem
          27 188 -34 callgsubr
        </CharString>
        <CharString name="sevensuperior">
          -334 465 -21 231 45 hstem
          27 632 -34 callgsubr
        </CharString>
        <CharString name="six">
          -25 -11 71 317 68 75 211 -72 72 hstemhm
          47 104 240 107 hintmask 11011100
          279 -11 rmoveto
          190 29 137 93 90 -29 136 -190 -53 -55 -28 -51 -16 hvcurveto
          -4 hlineto
          183 3 30 110 96 hhcurveto
          hintmask 11101100
          89 22 -60 -79 hvcurveto
          100 hlineto
          116 -52 95 -153 -182 -57 -156 -220 -178 2 -188 230 vhcurveto
          2 71 rmoveto
          -116 -10 103 52 61 10 101 116 110 5 -107 -55 -52 -7 -103 -108 hvcurveto
          endchar
        </CharString>
        <CharString name="sixinferior">
          -300 -5 40 callsubr
          -5 -57 callsubr
        </CharString>
        <CharString name="sixsuperior">
          -300 439 40 callsubr
          439 -57 callsubr
        </CharString>
        <CharString name="slash">
          -250 -69 callgsubr
          hstem
          111 hmoveto
          180 720 rlineto
          -87 hlineto
          -180 -720 rlineto
          endchar
        </CharString>
        <CharString name="space">
          -367 endchar
        </CharString>
        <CharString name="sterling">
          -40 0 75 -75 195 115 73 144 199 -74 74 -48 callsubr
          179 87 hintmask 10110110
          33 310 rmoveto
          93 -230 hlineto
          -93 -20 rlineto
          -60 430 vlineto
          hintmask 01110110
          195 -79 vlineto
          hintmask 10101110
          -13 -120 rlineto
          -146 235 132 73 -132 123 hlineto
          102 23 44 72 vhcurveto
          hintmask 10110110
          61 23 -44 -81 hvcurveto
          87 hlineto
          104 -35 95 -141 -152 -37 -85 -145 vhcurveto
          -113 vlineto
          -93 -20 rlineto
          endchar
        </CharString>
        <CharString name="t">
          -250 -10 77 360 73 131 -20 hstem
          87 95 vstem
          -87 callsubr
          endchar
        </CharString>
        <CharString name="tbar">
          -246 -10 77 200 63 97 73 131 -20 hstem
          90 95 vstem
          19 267 rmoveto
          71 -112 hlineto
          -114 37 -51 83 41 42 13 19 20 vhcurveto
          -21 56 rlineto
          -6 -20 -26 -5 -14 hhcurveto
          -33 -14 27 61 hvcurveto
          112 94 63 -94 97 -50 callsubr
          -53 75 -97 -71 vlineto
          endchar
        </CharString>
        <CharString name="tcaron">
          -250 -10 77 360 73 120 106 hstem
          87 95 42 107 vstem
          -87 callsubr
          279 80 -65 callsubr
        </CharString>
        <CharString name="tdotbelow">
          -250 -29 callsubr
          78 77 35 callgsubr
          -41 128 hintmask 11111000
          -87 callsubr
          193 -695 rmoveto
          hintmask 11110100
          -107 callgsubr
        </CharString>
        <CharString name="thorn">
          -62 -6 callgsubr
          205 70 380 70 245 -20 hstemhm
          -17 171 -95 95 205 103 hintmask 11111010
          -16 -215 rmoveto
          275 62 hlineto
          -105 16 rlineto
          216 vlineto
          -65 18 58 -24 60 hhcurveto
          142 30 123 147 122 -25 128 -144 -66 -58 -27 -63 -15 hvcurveto
          335 16 callgsubr
          hintmask 11110110
          76 -20 rlineto
          -812 vlineto
          -6 callsubr
          280 217 rmoveto
          -73 -37 61 82 hvcurveto
          111 vlineto
          70 31 56 73 80 21 -80 -107 -114 -14 -79 -81 vhcurveto
          endchar
        </CharString>
        <CharString name="three">
          -53 -11 72 -72 221 121 72 117 211 -72 72 hstemhm
          47 92 68 248 -104 104 -89 104 hintmask 1011011000000000
          251 61 rmoveto
          hintmask 0111010010000000
          -85 -27 62 87 hvcurveto
          -100 hlineto
          -130 52 -91 155 163 61 101 103 86 -43 66 -97 25 vhcurveto
          hintmask 1011010100000000
          90 26 35 74 76 vvcurveto
          100 -61 85 -146 -155 -46 -95 -116 vhcurveto
          100 hlineto
          hintmask 1010110100000000
          84 26 55 80 70 28 -43 -81 vhcurveto
          hintmask 1011011000000000
          -71 -21 -61 -123 vhcurveto
          -72 vlineto
          hintmask 1011010010000000
          134 25 -61 -70 -77 -31 -62 -84 hvcurveto
          endchar
        </CharString>
        <CharString name="threeeighths">
          -57 9 callgsubr
          158 47 81 39 72 47 -5 -20 hstemhm
          35 178 -63 63 76 50 82 56 hintmask 0111110110110000
          114 hmoveto
          -80 callgsubr
          68 486 rmoveto
          -26 -12 18 23 hvcurveto
          -50 hlineto
          -54 21 -34 63 69 28 34 47 38 -21 24 -43 5 vhcurveto
          40 9 18 28 30 vvcurveto
          hintmask 1011111010110000
          33 -23 38 -63 -64 -22 -38 -46 vhcurveto
          50 hlineto
          21 6 16 29 vhcurveto
          hintmask 1011111001110000
          -71 callsubr
          259 -491 -104 callgsubr
          endchar
        </CharString>
        <CharString name="threeinferior">
          -318 -5 30 callsubr
          42 -90 callsubr
          hintmask 11101000
          -71 callsubr
          endchar
        </CharString>
        <CharString name="threequarters">
          -49 55 callsubr
          167 47 81 39 72 47 -5 -20 hstemhm
          31 178 -63 63 190 50 hintmask 0110110110100000
          132 hmoveto
          -80 callgsubr
          329 43 rmoveto
          -37 -8 rlineto
          hintmask 1000111010100000
          -39 124 39 vlineto
          -37 8 rlineto
          hintmask 0110111010100000
          33 37 40 -37 vlineto
          hintmask 0101111010100000
          -34 callsubr
          hintmask 1000111010100000
          -113 -73 vlineto
          -210 370 -90 callsubr
          hintmask 1000111001100000
          -71 callsubr
          endchar
        </CharString>
        <CharString name="threesuperior">
          -318 439 30 callsubr
          486 -90 callsubr
          hintmask 11101000
          -71 callsubr
          endchar
        </CharString>
        <CharString name="tilde">
          -133 560 -13 callgsubr
          hintmask 10000000
          342 693 -54 callsubr
          hintmask 01000000
          -97 callgsubr
          hintmask 10000000
          -85 callgsubr
        </CharString>
        <CharString name="tilde.cap">
          -153 791 -13 callgsubr
          hintmask 10000000
          332 924 -54 callsubr
          hintmask 01000000
          -97 callgsubr
          hintmask 10000000
          -85 callgsubr
        </CharString>
        <CharString name="trademark">
          175 465 -21 180 96 -39 39 hstemhm
          57 147 -58 58 -58 148 63 58 180 58 hintmask 10110011
          487 444 rmoveto
          36 hlineto
          72 237 rlineto
          -196 vlineto
          -28 -8 rlineto
          -33 122 33 vlineto
          -36 8 rlineto
          194 vlineto
          36 8 rlineto
          33 -142 vlineto
          -42 -192 -42 192 rlineto
          -141 -33 hlineto
          35 -8 rlineto
          -194 vlineto
          -35 -8 rlineto
          -33 121 33 vlineto
          -28 8 rlineto
          196 vlineto
          hintmask 11000111
          -162 -57 rmoveto
          41 96 hlineto
          hintmask 11010011
          -237 -96 40 hlineto
          hintmask 10101011
          4 57 rlineto
          45 -196 hlineto
          -35 -8 rlineto
          -33 129 33 vlineto
          -36 8 rlineto
          196 45 vlineto
          endchar
        </CharString>
        <CharString name="two">
          -60 0 75 -75 195 325 211 -72 72 hstemhm
          41 100 204 104 hintmask 01101100
          460 195 rmoveto
          -79 hlineto
          hintmask 10101100
          -20 -120 rlineto
          -213 hlineto
          223 296 rlineto
          71 94 7 44 36 vvcurveto
          104 -56 82 -148 -155 -49 -90 -121 vhcurveto
          100 hlineto
          hintmask 10011100
          77 26 62 79 69 30 -48 -70 -41 -11 -29 -58 -74 vhcurveto
          -238 -307 rlineto
          -90 422 vlineto
          endchar
        </CharString>
        <CharString name="twoinferior">
          -310 0 45 188 48 hstemhm
          38 177 -57 57 hintmask 11100000
          219 78 -71 callgsubr
          hintmask 11010000
          -47 callsubr
        </CharString>
        <CharString name="twosuperior">
          -311 444 45 188 48 hstemhm
          37 177 -57 57 hintmask 11100000
          218 522 -71 callgsubr
          hintmask 11010000
          -47 callsubr
        </CharString>
        <CharString name="twothirds">
          -49 -5 47 -21 -21 123 39 72 47 163 45 188 48 -5 -20 hstemhm
          39 177 -57 57 89 178 -63 63 hintmask 0111101101000000
          128 hmoveto
          -80 callgsubr
          hintmask 1011110101000000
          324 42 -90 callsubr
          hintmask 1011110100100000
          -71 callsubr
          -170 480 -71 callgsubr
          hintmask 1011110011000000
          -47 callsubr
        </CharString>
        <CharString name="u">
          -24 callgsubr
          -21 callsubr
          -95 95 hintmask 10110010
          -70 callgsubr
          hintmask 01110100
          -41 callsubr
          hintmask 10110100
          -74 callsubr
          hintmask 10110010
          -95 callsubr
          hintmask 10101100
          -73 callgsubr
          endchar
        </CharString>
        <CharString name="uacute">
          -24 callgsubr
          85 155 -102 callsubr
          -5 575 -88 callgsubr
          endchar
        </CharString>
        <CharString name="ubreve">
          -24 callgsubr
          85 56 -56 130 -15 callsubr
          -51 78 77 185 -95 95 hintmask 1011010001000000
          -70 callgsubr
          hintmask 0111010010000000
          -41 callsubr
          hintmask 1011010010000000
          -74 callsubr
          hintmask 1011010001000000
          -95 callsubr
          hintmask 1010101010000000
          -73 callgsubr
          110 705 rmoveto
          hintmask 1011010010000000
          21 callsubr
          hintmask 1010100110000000
          -75 callsubr
        </CharString>
        <CharString name="ucircumflex">
          -24 callgsubr
          230 -20 -102 callsubr
          87 720 -94 callsubr
        </CharString>
        <CharString name="udieresis">
          -24 callgsubr
          128 118 -15 callsubr
          -72 119 57 185 -155 119 -59 95 hintmask 1011100001000000
          -70 callgsubr
          hintmask 0111100100000000
          -41 callsubr
          hintmask 1011100100000000
          -74 callsubr
          hintmask 1011100001000000
          -95 callsubr
          hintmask 1011010100000000
          -73 callgsubr
          -71 618 rmoveto
          hintmask 1011001010000000
          -105 callgsubr
        </CharString>
        <CharString name="udotbelow">
          -16 -29 callsubr
          78 -14 callgsubr
          -15 callsubr
          34 128 -58 185 -95 95 hintmask 1101101010000000
          -70 callgsubr
          hintmask 1011101010000000
          -41 callsubr
          hintmask 1101100100000000
          -74 callsubr
          hintmask 1101101010000000
          -95 callsubr
          hintmask 1101011010000000
          -73 callgsubr
          40 -205 rmoveto
          -107 callgsubr
        </CharString>
        <CharString name="ugrave">
          -24 callgsubr
          85 155 -102 callsubr
          12 730 -52 callsubr
        </CharString>
        <CharString name="uhungarumlaut">
          -24 callgsubr
          85 155 -102 callsubr
          -91 575 -88 callgsubr
          108 -155 -88 callgsubr
          endchar
        </CharString>
        <CharString name="umacron">
          -24 callgsubr
          135 63 -102 callsubr
          -99 625 -60 callgsubr
        </CharString>
        <CharString name="underscore">
          -155 -73 73 hstem
          7 -73 rmoveto
          396 73 -396 hlineto
          endchar
        </CharString>
        <CharString name="uni00A0">
          -366 endchar
        </CharString>
        <CharString name="uni00AD">
          -139 214 73 hstem
          56 214 17 callsubr
        </CharString>
        <CharString name="uni015E">
          -12 22 callsubr
          36 -55 callsubr
          hstemhm
          57 100 151 88 10 88 -88 100 hintmask 1110010110100000
          197 -66 callsubr
          17 41 rlineto
          133 77 75 123 hvcurveto
          267 -349 -76 170 vvcurveto
          63 49 38 59 93 37 -93 -81 vhcurveto
          hintmask 1110001111000000
          -50 callgsubr
          hintmask 1110010111000000
          -86 callgsubr
          hintmask 1101010111000000
          -24 callsubr
          hintmask 1100110111000000
          -33 callgsubr
          14 -38 19 -38 63 -12 -44 -105 rcurveline
          -66 callgsubr
        </CharString>
        <CharString name="uni015F">
          -147 22 callsubr
          37 26 callgsubr
          107 88 -42 75 -75 88 hintmask 1110010011000000
          134 -66 callsubr
          18 42 rlineto
          hintmask 1110001010010000
          71 1 74 45 101 183 -241 -44 110 vvcurveto
          36 24 23 36 vhcurveto
          hintmask 1110010010100000
          -10 callgsubr
          hintmask 1110000110100000
          156 -56 -45 callsubr
          hintmask 1110010010100000
          -83 callsubr
          hintmask 1101010011000000
          -9 callgsubr
          hintmask 1100110011000000
          -9 callsubr
          4 hlineto
          7 -35 27 -21 31 -9 -45 -108 rcurveline
          -66 callgsubr
        </CharString>
        <CharString name="uni0162">
          54 22 callsubr
          68 51 callgsubr
          -22 88 hintmask 11110100
          513 -43 callgsubr
          hintmask 11101100
          13 150 rlineto
          141 -565 hlineto
          -103 -20 rlineto
          -60 123 vlineto
          -47 -111 rlineto
          43 hlineto
          7 9 10 3 11 hhcurveto
          hintmask 11110010
          21 10 -10 -15 -27 -30 -23 -71 hvcurveto
          -10 -39 rlineto
          141 58 36 65 46 -29 21 -44 -9 -20 -1 -4 -15 hvcurveto
          22 52 rlineto
          132 60 hlineto
          hintmask 11101100
          -103 20 rlineto
          565 140 vlineto
          endchar
        </CharString>
        <CharString name="uni0163">
          -250 22 callsubr
          -64 178 35 callgsubr
          47 88 hintmask 11011110
          118 -66 callsubr
          18 42 37 2 37 12 18 18 rlinecurve
          -21 56 rlineto
          hintmask 10111110
          -6 -20 -26 -5 -14 hhcurveto
          -33 -14 27 61 hvcurveto
          272 -50 callsubr
          -53 75 -272 vlineto
          -95 25 -52 57 -14 vhcurveto
          -44 -105 rlineto
          -66 callgsubr
        </CharString>
        <CharString name="uni01C4">
          677 -39 callsubr
          196 -20 -48 callsubr
          288 104 hintmask 10011110
          -102 callgsubr
          hintmask 10101110
          397 -225 rmoveto
          79 hlineto
          hintmask 10011110
          -69 callsubr
          hintmask 01101110
          244 -79 vlineto
          hintmask 10101110
          -68 callgsubr
          401 196 -84 callsubr
        </CharString>
        <CharString name="uni01C5">
          556 45 callsubr
          65 155 -75 75 -48 callsubr
          288 104 hintmask 11011100
          -102 callgsubr
          395 -370 -93 callgsubr
          343 210 rmoveto
          -78 hlineto
          -91 -82 -97 82 rlineto
          -78 hlineto
          hintmask 11101100
          120 -145 rlineto
          114 hlineto
          endchar
        </CharString>
        <CharString name="uni01C6">
          -89 callgsubr
          343 210 -86 callsubr
        </CharString>
        <CharString name="uni01C7">
          422 0 60 -60 75 -75 204 -204 235 -224 -21 730 -20 -48 callsubr
          312 37 callsubr
          hintmask 0100011110000000
          400 75 rmoveto
          -175 565 hlineto
          -48 callgsubr
          -560 vlineto
          hintmask 1000011110000000
          -93 -20 rlineto
          -60 460 vlineto
          hintmask 0001011110000000
          6 callgsubr
          vlineto
          hintmask 0100011110000000
          hintmask 0000111110000000
          308 -245 -41 callgsubr
          hintmask 1000011101000000
          -30 callgsubr
          hintmask 0010011110000000
          -37 callsubr
          hintmask 0000111110000000
          12 callgsubr
          endchar
        </CharString>
        <CharString name="uni01C8">
          194 -225 76 149 75 -75 235 265 -20 119 121 6 -20 -48 callsubr
          303 14 callgsubr
          hintmask 1101101100000000
          -78 callgsubr
          hintmask 1011101100000000
          6 callgsubr
          vlineto
          hintmask 1101101100000000
          284 265 20 callsubr
          -97 callsubr
          -49 614 rmoveto
          hintmask 1101011010000000
          37 27 27 37 37 -27 26 -37 -37 -27 -26 -37 hvcurveto
          hintmask 1101101100000000
          -37 27 -27 37 vhcurveto
          endchar
        </CharString>
        <CharString name="uni01C9">
          -52 -225 76 170 18 callsubr
          29 -11 callsubr
          101 14 callgsubr
          hintmask 1111101010000000
          13 -33 callsubr
          hintmask 1111110010000000
          8 callsubr
          hintmask 1111100110000000
          -19 callgsubr
          439 440 20 callsubr
          hintmask 1111110010000000
          -97 callsubr
          -49 614 rmoveto
          hintmask 1111110001000000
          -107 callgsubr
        </CharString>
        <CharString name="uni01CA">
          662 32 callsubr
          322 99 131 37 callsubr
          hintmask 1001111100000000
          -103 callgsubr
          hintmask 0011111100000000
          415 -90 -41 callgsubr
          hintmask 1001111010000000
          -30 callgsubr
          hintmask 0101111100000000
          -37 callsubr
          hintmask 0011111100000000
          12 callgsubr
          endchar
        </CharString>
        <CharString name="uni01CB">
          439 -225 76 170 -57 callgsubr
          119 121 6 -20 -48 callsubr
          322 99 127 14 callgsubr
          hintmask 1111011100000000
          -103 callgsubr
          396 420 20 callsubr
          -97 callsubr
          -49 614 rmoveto
          hintmask 1110111010000000
          37 27 27 37 37 -27 26 -37 -37 -27 -26 -37 hvcurveto
          hintmask 1111011100000000
          -37 27 -27 37 vhcurveto
          endchar
        </CharString>
        <CharString name="uni01CC">
          265 -225 76 170 -21 440 -16 callsubr
          119 127 hstemhm
          30 -38 callsubr
          23 14 callgsubr
          hintmask 1110110011000000
          -10 callsubr
          hintmask 1110101101000000
          -76 callgsubr
          hintmask 1101110101000000
          -23 callgsubr
          hintmask 1110110101000000
          -60 vlineto
          hintmask 1110101101000000
          -63 callsubr
          hintmask 1110110101000000
          -2 callgsubr
          hintmask 1110101011000000
          -49 callsubr
          218 vlineto
          64 35 78 78 81 10 -62 -71 vhcurveto
          hintmask 1101110101000000
          364 193 rmoveto
          -170 hlineto
          hintmask 1110110101000000
          -60 vlineto
          hintmask 1101110101000000
          -97 callsubr
          -49 614 rmoveto
          hintmask 1110110100100000
          -107 callgsubr
        </CharString>
        <CharString name="uni01F1">
          677 -39 callsubr
          -48 callsubr
          288 104 hintmask 10011100
          -102 callgsubr
          hintmask 10101100
          397 -225 rmoveto
          79 hlineto
          hintmask 10011100
          -69 callsubr
          hintmask 01101100
          244 -79 vlineto
          hintmask 10101100
          -68 callgsubr
          endchar
        </CharString>
        <CharString name="uni01F2">
          556 45 callsubr
          145 75 -58 callgsubr
          395 -370 -93 callgsubr
          endchar
        </CharString>
        <CharString name="uni01F3">
          -89 callgsubr
          endchar
        </CharString>
        <CharString name="uni0218">
          -12 -22 callgsubr
          32 0 -55 callsubr
          hstemhm
          57 100 92 99 58 88 -88 100 hintmask 1010010110100000
          -85 callsubr
          hintmask 1100101111000000
          -50 callgsubr
          hintmask 1010010111000000
          -86 callgsubr
          hintmask 1001010111000000
          -24 callsubr
          hintmask 1110010111000000
          -33 callgsubr
          -46 17 25 -47 104 hhcurveto
          -49 -123 -89 callsubr
        </CharString>
        <CharString name="uni0219">
          -147 -22 callgsubr
          33 0 65 -65 165 -134 -21 445 65 -10 -20 hstemhm
          51 87 27 99 27 75 -75 88 hintmask 1010010110100000
          -82 callgsubr
          50 32 -39 -62 1 vhcurveto
          hintmask 1100101111000000
          85 156 -56 hlineto
          -20 -63 rlineto
          -4 hlineto
          hintmask 1010010111000000
          -83 callsubr
          hintmask 1001010111000000
          -9 callgsubr
          hintmask 1100110111000000
          -9 callsubr
          48 -196 -89 callsubr
        </CharString>
        <CharString name="uni021A">
          54 -22 callgsubr
          43 645 75 hstem
          260 99 vstem
          513 -43 callgsubr
          -61 callsubr
          -238 -779 -89 callsubr
        </CharString>
        <CharString name="uni021B">
          -250 -22 callgsubr
          33 0 77 35 callgsubr
          -50 99 hintmask 10111100
          -87 callsubr
          hintmask 11011010
          120 -614 -89 callsubr
        </CharString>
        <CharString name="uni03BC">
          -3 49 callgsubr
          13 47 callgsubr
          88 -62 callsubr
        </CharString>
        <CharString name="uni2215">
          -181 -69 callgsubr
          hstem
          53 hmoveto
          -80 callgsubr
          endchar
        </CharString>
        <CharString name="uni2219">
          11 callgsubr
        </CharString>
        <CharString name="uogonek">
          -16 -210 69 131 -14 callgsubr
          -21 callsubr
          -140 55 callgsubr
          -119 95 hintmask 1101100001000000
          -70 callgsubr
          20 -82 rlineto
          hintmask 1101100010000000
          -41 -41 -24 -30 -48 -56 callsubr
          hintmask 1011100100000000
          -20 callgsubr
          hvcurveto
          92 hlineto
          hintmask 1101101000000000
          -74 callsubr
          hintmask 1101100001000000
          -95 callsubr
          hintmask 1101011000000000
          -73 callgsubr
          endchar
        </CharString>
        <CharString name="uring">
          -24 callgsubr
          79 48 70 49 -15 callsubr
          12 49 43 185 -158 49 14 95 hintmask 1011110101100000
          -70 callgsubr
          hintmask 0111110110000000
          -41 callsubr
          hintmask 1011110110000000
          -74 callsubr
          hintmask 1011110101100000
          -95 callsubr
          hintmask 1011101101100000
          -73 callgsubr
          38 569 rmoveto
          -74 callgsubr
          endchar
        </CharString>
        <CharString name="utilde">
          -24 callgsubr
          80 70 -4 70 -21 callsubr
          -95 95 hintmask 1011010010000000
          -70 callgsubr
          hintmask 0111010100000000
          -41 callsubr
          hintmask 1011010100000000
          -74 callsubr
          hintmask 1011010010000000
          -95 callsubr
          hintmask 1011001100000000
          -73 callgsubr
          164 703 -54 callsubr
          hintmask 1010110100000000
          -97 callgsubr
          hintmask 1011010100000000
          -85 callgsubr
        </CharString>
        <CharString name="v">
          -31 -16 callgsubr
          hstem
          197 hmoveto
          140 hlineto
          134 420 54 25 callgsubr
          -215 -65 vlineto
          67 -15 -110 -356 -110 356 68 15 rlineto
          65 -216 -60 vlineto
          54 -20 rlineto
          endchar
        </CharString>
        <CharString name="w">
          215 -16 callgsubr
          hstem
          -96 callgsubr
          endchar
        </CharString>
        <CharString name="wacute">
          215 -16 callgsubr
          85 155 hstem
          -96 callgsubr
          -27 144 -88 callgsubr
          endchar
        </CharString>
        <CharString name="wcircumflex">
          215 -16 callgsubr
          230 -20 hstem
          -96 callgsubr
          59 289 -94 callsubr
        </CharString>
        <CharString name="wdieresis">
          215 -16 callgsubr
          128 118 hstem
          226 -8 callgsubr
          vstem
          -96 callgsubr
          -105 187 rmoveto
          -105 callgsubr
        </CharString>
        <CharString name="wgrave">
          215 -16 callgsubr
          85 155 hstem
          -96 callgsubr
          -22 299 -52 callsubr
        </CharString>
        <CharString name="x">
          -21 -16 callgsubr
          hstem
          27 226 38 231 vstem
          22 hmoveto
          231 60 hlineto
          -71 20 90 113 90 -113 -71 -20 rlineto
          -60 231 60 vlineto
          -54 20 -149 176 139 164 59 25 callgsubr
          -228 -60 vlineto
          65 -20 -82 -101 -82 101 65 25 callgsubr
          -228 -60 vlineto
          59 -20 138 -164 -148 -176 -54 -20 rlineto
          endchar
        </CharString>
        <CharString name="y">
          -42 -6 callgsubr
          236 -57 callgsubr
          hstem
          -98 callsubr
          endchar
        </CharString>
        <CharString name="yacute">
          -42 -6 callgsubr
          236 -57 callgsubr
          85 155 hstem
          -98 callsubr
          165 145 -88 callgsubr
          endchar
        </CharString>
        <CharString name="ycircumflex">
          -42 -6 callgsubr
          236 -57 callgsubr
          230 -20 hstem
          -98 callsubr
          265 290 -94 callsubr
        </CharString>
        <CharString name="ydieresis">
          -42 -6 callgsubr
          236 -57 callgsubr
          128 118 hstem
          99 -8 callgsubr
          vstem
          -98 callsubr
          101 188 rmoveto
          -105 callgsubr
        </CharString>
        <CharString name="yen">
          21 -21 97 73 64 73 413 -20 hstem
          305 99 vstem
          182 97 rmoveto
          123 -97 99 97 122 73 -122 64 122 73 -93 hlineto
          172 333 84 25 callgsubr
          -280 -60 vlineto
          93 -20 -148 -313 -148 313 94 25 callgsubr
          -281 -60 vlineto
          84 -20 171 -333 rlineto
          -92 -73 123 -64 -123 hlineto
          endchar
        </CharString>
        <CharString name="ygrave">
          -42 -6 callgsubr
          236 -57 callgsubr
          85 155 hstem
          -98 callsubr
          184 300 -52 callsubr
        </CharString>
        <CharString name="ytilde">
          -42 -6 callgsubr
          236 -57 callgsubr
          80 -13 callgsubr
          hintmask 11110000
          -98 callsubr
          333 273 -54 callsubr
          hintmask 11101000
          -97 callgsubr
          hintmask 11110000
          -85 callgsubr
        </CharString>
        <CharString name="z">
          -107 45 callsubr
          hstem
          54 350 -93 callgsubr
          endchar
        </CharString>
        <CharString name="zacute">
          -107 45 callsubr
          65 155 hstem
          54 350 -93 callgsubr
          107 65 -88 callgsubr
          endchar
        </CharString>
        <CharString name="zcaron">
          -107 45 callsubr
          210 -20 hstem
          54 350 -93 callgsubr
          343 210 -86 callsubr
        </CharString>
        <CharString name="zdotaccent">
          -107 45 callsubr
          99 127 hstem
          174 128 vstem
          54 350 -93 callgsubr
          184 99 rmoveto
          -107 callgsubr
        </CharString>
        <CharString name="zdotbelow">
          -107 -29 callsubr
          88 75 350 75 hstem
          157 128 vstem
          54 350 -93 callgsubr
          167 -715 rmoveto
          -107 callgsubr
        </CharString>
        <CharString name="zero">
          14 -32 callgsubr
          hstem
          47 104 278 104 vstem
          289 -11 rmoveto
          208 36 148 222 222 -36 150 -209 -207 -34 -146 -224 -225 34 -147 208 hvcurveto
          4 72 rmoveto
          -131 -11 110 188 187 11 113 130 130 7 -120 -182 -182 -7 -114 -129 hvcurveto
          endchar
        </CharString>
        <CharString name="zeroinferior">
          -281 -5 48 callsubr
          -5 -28 callsubr
        </CharString>
        <CharString name="zerosuperior">
          -281 439 48 callsubr
          439 -28 callsubr
        </CharString>
      <CharString index="0">
        37 27 27 37 37 -27 26 -37 -37 -27 -26 -37 -37 27 -27 37 hvcurveto
        endchar
      </CharString>
      <CharString index="1">
        -42 -2 -9 -56 -78 hhcurveto
        -92 -10 79 99 hvcurveto
        282 hlineto
        1 18 0 17 16 vvcurveto
        158 -44 73 -135 -161 -49 -99 -161 -160 49 -100 159 vhcurveto
        -4 460 rmoveto
        66 26 -42 -120 hvcurveto
        -190 hlineto
        89 2 14 73 82 hhcurveto
        return
      </CharString>
      <CharString index="2">
        35 25 25 34 35 -25 24 -35 -34 -25 -24 -35 -34 25 -25 34 hvcurveto
        206 hmoveto
        35 25 25 34 35 -25 24 -35 -34 -25 -24 -35 -34 25 -25 34 hvcurveto
        endchar
      </CharString>
      <CharString index="3">
        rmoveto
        72 26 41 42 36 -18 20 -38 11 hvcurveto
        35 10 15 23 36 vvcurveto
        34 -24 33 -69 -68 -21 -32 -35 -36 14 -21 33 -12 vhcurveto
        -37 -10 -16 -21 -36 vvcurveto
        -41 23 -42 73 vhcurveto
        1 131 rmoveto
        30 11 -15 -29 -19 -11 -21 -30 -31 -10 22 19 27 9 16 32 hvcurveto
        38 vmoveto
        -27 -8 16 21 18 9 15 26 25 10 -15 -19 -22 -9 -14 -26 hvcurveto
        return
      </CharString>
      <CharString index="4">
        298 -3 callsubr
        -265 -60 hlineto
        -68 callsubr
        -60 265 60 vlineto
        -73 20 rlineto
        560 vlineto
        249 -640 rlineto
        172 640 hlineto
        93 25 callgsubr
        -265 -60 vlineto
        73 -60 callsubr
        return
      </CharString>
      <CharString index="5">
        326 645 rmoveto
        170 17 -106 -172 -162 -7 -130 -169 hvcurveto
        -112 570 hlineto
        -192 75 rmoveto
        -60 vlineto
        -68 callsubr
        -60 300 vlineto
        245 39 167 202 212 -49 139 -246 hvcurveto
        return
      </CharString>
      <CharString index="6">
        vlineto
        -93 -20 rlineto
        -60 285 -15 callgsubr
        20 rlineto
        return
      </CharString>
      <CharString index="7">
        283 250 rmoveto
        -170 -101 callgsubr
        170 vlineto
        201 390 84 25 callgsubr
        -280 -60 vlineto
        93 -20 -148 -313 -148 313 94 25 callgsubr
        -281 46 callsubr
        return
      </CharString>
      <CharString index="8">
        1 callsubr
        216 35 callsubr
        hintmask 1001011010000000
        -85 callsubr
        hintmask 1000111100000000
        -50 callgsubr
        hintmask 1001011100000000
        -86 callgsubr
        hintmask 0101011100000000
        -24 callsubr
        hintmask 0011011100000000
        -33 callgsubr
        hintmask 1001011100000000
        -46 17 25 -47 104 hhcurveto
        return
      </CharString>
      <CharString index="9">
        221 hmoveto
        150 hlineto
        108 582 109 -582 rlineto
        150 hlineto
        141 640 84 25 callgsubr
        -273 -60 vlineto
        89 -20 -111 -563 -124 643 rlineto
        -130 hlineto
        -123 -643 -111 563 90 25 callgsubr
        -274 46 callsubr
        return
      </CharString>
      <CharString index="10">
        -50 -18 66 -79 hhcurveto
        -77 -31 -64 -62 hvcurveto
        61 hlineto
        41 31 15 20 vhcurveto
        return
      </CharString>
      <CharString index="11">
        472 hmoveto
        148 hlineto
        94 420 54 25 callgsubr
        -221 -65 vlineto
        73 -15 -70 -356 -92 436 rlineto
        -136 hlineto
        -92 -436 -70 356 74 15 rlineto
        65 -222 -60 vlineto
        54 -20 94 -420 rlineto
        147 hlineto
        83 421 rlineto
        return
      </CharString>
      <CharString index="12">
        27 70 rmoveto
        -40 -46 17 66 45 21 41 84 5 hvcurveto
        89 5 rlineto
        -42 vlineto
        -65 -27 -72 -81 vhcurveto
        return
      </CharString>
      <CharString index="13">
        20 -72 rlineto
        150 60 hlineto
        -49 callsubr
        295 vlineto
        94 -50 41 -85 -60 -46 -21 -52 -27 vhcurveto
        -4 hlineto
        return
      </CharString>
      <CharString index="14">
        rmoveto
        56 hlineto
        10 75 rlineto
        185 hlineto
        -271 -340 rlineto
        -85 384 165 -56 vlineto
        -11 -90 rlineto
        -214 hlineto
        269 340 rlineto
        85 -352 vlineto
        return
      </CharString>
      <CharString index="15">
        rmoveto
        81 hlineto
        137 125 rlineto
        -123 hlineto
        return
      </CharString>
      <CharString index="16">
        84 -15 -61 20 -78 hhcurveto
        -222 -30 -160 -196 -230 41 -156 221 188 64 114 147 hvcurveto
        -100 hlineto
        -104 -29 -85 -119 -141 -21 119 177 190 24 112 130 vhcurveto
        return
      </CharString>
      <CharString index="17">
        rmoveto
        125 21 75 113 113 -24 77 -122 -124 -20 -75 -113 -115 20 -75 124 hvcurveto
        3 59 rmoveto
        -66 -6 47 82 82 6 48 65 65 4 -52 -79 -79 -5 -49 -63 hvcurveto
        return
      </CharString>
      <CharString index="18">
        425 -10 70 -70 85 -54 -21 425 85 -70 -16 callsubr
        275 2 callgsubr
        hintmask 1000101101000000
        349 421 rmoveto
        -87 callgsubr
        hintmask 0011001110000000
        20 -72 rlineto
        150 hlineto
        hintmask 1001001110000000
        -25 callgsubr
        hintmask 1000101101000000
        86 -20 rlineto
        -112 -235 -81 callsubr
        349 -90 rmoveto
        56 hlineto
        hintmask 0011001110000000
        10 75 rlineto
        185 hlineto
        -271 -340 rlineto
        -85 384 165 -56 vlineto
        hintmask 0100011110000000
        -11 -90 rlineto
        -214 hlineto
        269 340 rlineto
        85 -352 vlineto
        return
      </CharString>
      <CharString index="19">
        rmoveto
        61 hlineto
        97 155 rlineto
        -103 hlineto
        return
      </CharString>
      <CharString index="20">
        58 -15 -49 31 -73 hhcurveto
        -132 -39 -116 -144 -144 40 -116 132 74 43 31 51 19 hvcurveto
        return
      </CharString>
      <CharString index="21">
        78 -13 -61 26 -69 hhcurveto
        -105 -85 -61 -126 hvcurveto
        -260 349 88 -192 vvcurveto
        -59 -34 -50 -88 vhcurveto
        return
      </CharString>
      <CharString index="22">
        43 30 -66 76 hhcurveto
        72 39 60 73 hvcurveto
        endchar
      </CharString>
      <CharString index="23">
        -65 47 -27 51 33 33 11 0 vhcurveto
        69 vlineto
        0 -21 -11 -24 return
      </CharString>
      <CharString index="24">
        -20 80 rlineto
        -146 -60 hlineto
        76 -20 rlineto
        -342 vlineto
        -6 callsubr
        -58 274 65 vlineto
        -104 13 rlineto
        207 vlineto
        112 36 22 111 vhcurveto
        return
      </CharString>
      <CharString index="25">
        121 62 rmoveto
        -51 11 51 -21 49 hhcurveto
        72 75 45 102 hvcurveto
        183 -241 -44 110 vvcurveto
        36 24 23 36 return
      </CharString>
      <CharString index="26">
        -40 -9 -47 -25 -71 vvcurveto
        -107 77 -24 132 110 100 24 130 135 -96 12 -114 -100 -25 4 28 24 37 7 83 vhcurveto
        return
      </CharString>
      <CharString index="27">
        340 720 rlineto
        -62 hlineto
        -340 -720 rlineto
        return
      </CharString>
      <CharString index="28">
        104 vstem
        -102 callgsubr
        return
      </CharString>
      <CharString index="29">
        400 75 rmoveto
        -175 565 hlineto
        -48 callgsubr
        -560 vlineto
        -93 -20 rlineto
        -60 460 vlineto
        return
      </CharString>
      <CharString index="30">
        87 -23 -59 13 -65 hhcurveto
        -227 -33 -160 -199 -234 46 -149 203 108 41 42 72 21 hvcurveto
        5 hlineto
        return
      </CharString>
      <CharString index="31">
        -49 callsubr
        226 vlineto
        99 -21 105 -135 -73 -58 -30 -60 -13 vhcurveto
        return
      </CharString>
      <CharString index="32">
        -52 -24 33 36 hvcurveto
        -83 hlineto
        -72 33 -58 124 126 33 58 72 vhcurveto
        endchar
      </CharString>
      <CharString index="33">
        49 35 36 48 49 -35 34 -49 -49 -35 -34 -49 -48 35 -36 49 hvcurveto
        48 vmoveto
        -20 -15 15 20 21 15 14 20 20 15 -14 -21 -20 -15 -15 -20 hvcurveto
        return
      </CharString>
      <CharString index="34">
        60 -20 rlineto
        -284 vlineto
        -80 48 -66 106 vhcurveto
        return
      </CharString>
      <CharString index="35">
        -2 21 -21 440 70 245 -20 hstemhm
        12 171 -171 -23 callsubr
        199 3 callgsubr
        hintmask 11110001
        382 hmoveto
        171 60 hlineto
        hintmask 11110010
        -39 callgsubr
        335 16 callgsubr
        hintmask 11100110
        7 callsubr
        -60 vlineto
        hintmask 11101010
        -2 callgsubr
        hintmask 11110001
        -49 callsubr
        239 vlineto
        64 33 57 76 80 10 -63 -70 vhcurveto
        return
      </CharString>
      <CharString index="36">
        rmoveto
        -41 hlineto
        -8 -33 rlineto
        -66 hlineto
        80 92 rlineto
        20 23 11 18 28 vvcurveto
        42 -24 33 -65 -67 -21 -40 -55 vhcurveto
        50 hlineto
        28 14 19 22 vhcurveto
        return
      </CharString>
      <CharString index="37">
        229 -10 rmoveto
        71 52 31 62 13 hvcurveto
        return
      </CharString>
      <CharString index="38">
        21 -53 callsubr
        return
      </CharString>
      <CharString index="39">
        -14 -169 rlineto
        -291 hlineto
        372 560 rlineto
        85 -467 vlineto
        return
      </CharString>
      <CharString index="40">
        327 -67 callsubr
        return
      </CharString>
</ttFont>
